<?xml version="1.0" encoding="UTF-8"?>
<svg version="1.1" viewBox="0 0 1422 800" xmlns="http://www.w3.org/2000/svg">
<g fill="none" stroke="hsl(196,100%, 47%)" stroke-width="3.5">
<line x1="62" y2="62" opacity=".05"/>
<line x1="124" x2="62" y2="62" opacity=".05"/>
<line x1="124" x2="186" y2="62" opacity=".05"/>
<line x1="248" x2="186" y2="62" opacity=".05"/>
<line x1="248" x2="310" y2="62" opacity=".05"/>
<line x1="310" x2="372" y2="62" opacity=".05"/>
<line x1="434" x2="372" y2="62" opacity=".05"/>
<line x1="434" x2="496" y2="62" opacity=".05"/>
<line x1="496" x2="558" y2="62" opacity=".05"/>
<line x1="620" x2="558" y2="62" opacity=".05"/>
<line x1="682" x2="620" y2="62" opacity=".05"/>
<line x1="744" x2="682" y2="62" opacity=".05"/>
<line x1="744" x2="806" y2="62" opacity=".05"/>
<line x1="868" x2="806" y2="62" opacity=".05"/>
<line x1="868" x2="930" y2="62" opacity=".05"/>
<line x1="992" x2="930" y2="62" opacity=".05"/>
<line x1="992" x2="1054" y2="62" opacity=".05"/>
<line x1="1116" x2="1054" y2="62" opacity=".05"/>
<line x1="1178" x2="1116" y2="62" opacity=".05"/>
<line x1="1178" x2="1240" y2="62" opacity=".05"/>
<line x1="1240" x2="1302" y2="62" opacity=".05"/>
<line x1="1302" x2="1364" y2="62" opacity=".05"/>
<line x1="1426" x2="1364" y2="62" opacity=".05"/>
<line x2="62" y1="62" y2="124" opacity=".12"/>
<line x1="124" x2="62" y1="62" y2="124" opacity=".12"/>
<line x1="124" x2="186" y1="62" y2="124" opacity=".12"/>
<line x1="186" x2="248" y1="62" y2="124" opacity=".12"/>
<line x1="248" x2="310" y1="62" y2="124" opacity=".12"/>
<line x1="372" x2="310" y1="62" y2="124" opacity=".12"/>
<line x1="434" x2="372" y1="62" y2="124" opacity=".12"/>
<line x1="434" x2="496" y1="62" y2="124" opacity=".12"/>
<line x1="496" x2="558" y1="62" y2="124" opacity=".12"/>
<line x1="620" x2="558" y1="62" y2="124" opacity=".12"/>
<line x1="620" x2="682" y1="62" y2="124" opacity=".12"/>
<line x1="744" x2="682" y1="62" y2="124" opacity=".12"/>
<line x1="744" x2="806" y1="62" y2="124" opacity=".12"/>
<line x1="868" x2="806" y1="62" y2="124" opacity=".12"/>
<line x1="868" x2="930" y1="62" y2="124" opacity=".12"/>
<line x1="930" x2="992" y1="62" y2="124" opacity=".12"/>
<line x1="1054" x2="992" y1="62" y2="124" opacity=".12"/>
<line x1="1116" x2="1054" y1="62" y2="124" opacity=".12"/>
<line x1="1178" x2="1116" y1="62" y2="124" opacity=".12"/>
<line x1="1240" x2="1178" y1="62" y2="124" opacity=".12"/>
<line x1="1240" x2="1302" y1="62" y2="124" opacity=".12"/>
<line x1="1302" x2="1364" y1="62" y2="124" opacity=".12"/>
<line x1="1426" x2="1364" y1="62" y2="124" opacity=".12"/>
<line x2="62" y1="124" y2="186" opacity=".2"/>
<line x1="124" x2="62" y1="124" y2="186" opacity=".2"/>
<line x1="186" x2="124" y1="124" y2="186" opacity=".2"/>
<line x1="186" x2="248" y1="124" y2="186" opacity=".2"/>
<line x1="248" x2="310" y1="124" y2="186" opacity=".2"/>
<line x1="310" x2="372" y1="124" y2="186" opacity=".2"/>
<line x1="372" x2="434" y1="124" y2="186" opacity=".2"/>
<line x1="434" x2="496" y1="124" y2="186" opacity=".2"/>
<line x1="496" x2="558" y1="124" y2="186" opacity=".2"/>
<line x1="620" x2="558" y1="124" y2="186" opacity=".2"/>
<line x1="682" x2="620" y1="124" y2="186" opacity=".2"/>
<line x1="744" x2="682" y1="124" y2="186" opacity=".2"/>
<line x1="744" x2="806" y1="124" y2="186" opacity=".2"/>
<line x1="806" x2="868" y1="124" y2="186" opacity=".2"/>
<line x1="930" x2="868" y1="124" y2="186" opacity=".2"/>
<line x1="992" x2="930" y1="124" y2="186" opacity=".2"/>
<line x1="992" x2="1054" y1="124" y2="186" opacity=".2"/>
<line x1="1116" x2="1054" y1="124" y2="186" opacity=".2"/>
<line x1="1178" x2="1116" y1="124" y2="186" opacity=".2"/>
<line x1="1178" x2="1240" y1="124" y2="186" opacity=".2"/>
<line x1="1240" x2="1302" y1="124" y2="186" opacity=".2"/>
<line x1="1364" x2="1302" y1="124" y2="186" opacity=".2"/>
<line x1="1364" x2="1426" y1="124" y2="186" opacity=".2"/>
<line x1="62" y1="186" y2="248" opacity=".27"/>
<line x1="124" x2="62" y1="186" y2="248" opacity=".27"/>
<line x1="124" x2="186" y1="186" y2="248" opacity=".27"/>
<line x1="248" x2="186" y1="186" y2="248" opacity=".27"/>
<line x1="248" x2="310" y1="186" y2="248" opacity=".27"/>
<line x1="310" x2="372" y1="186" y2="248" opacity=".27"/>
<line x1="372" x2="434" y1="186" y2="248" opacity=".27"/>
<line x1="496" x2="434" y1="186" y2="248" opacity=".27"/>
<line x1="496" x2="558" y1="186" y2="248" opacity=".27"/>
<line x1="620" x2="558" y1="186" y2="248" opacity=".27"/>
<line x1="620" x2="682" y1="186" y2="248" opacity=".27"/>
<line x1="682" x2="744" y1="186" y2="248" opacity=".27"/>
<line x1="744" x2="806" y1="186" y2="248" opacity=".27"/>
<line x1="868" x2="806" y1="186" y2="248" opacity=".27"/>
<line x1="930" x2="868" y1="186" y2="248" opacity=".27"/>
<line x1="930" x2="992" y1="186" y2="248" opacity=".27"/>
<line x1="1054" x2="992" y1="186" y2="248" opacity=".27"/>
<line x1="1116" x2="1054" y1="186" y2="248" opacity=".27"/>
<line x1="1178" x2="1116" y1="186" y2="248" opacity=".27"/>
<line x1="1240" x2="1178" y1="186" y2="248" opacity=".27"/>
<line x1="1240" x2="1302" y1="186" y2="248" opacity=".27"/>
<line x1="1302" x2="1364" y1="186" y2="248" opacity=".27"/>
<line x1="1426" x2="1364" y1="186" y2="248" opacity=".27"/>
<line x2="62" y1="248" y2="310" opacity=".34"/>
<line x1="124" x2="62" y1="248" y2="310" opacity=".34"/>
<line x1="186" x2="124" y1="248" y2="310" opacity=".34"/>
<line x1="186" x2="248" y1="248" y2="310" opacity=".34"/>
<line x1="248" x2="310" y1="248" y2="310" opacity=".34"/>
<line x1="372" x2="310" y1="248" y2="310" opacity=".34"/>
<line x1="434" x2="372" y1="248" y2="310" opacity=".34"/>
<line x1="496" x2="434" y1="248" y2="310" opacity=".34"/>
<line x1="558" x2="496" y1="248" y2="310" opacity=".34"/>
<line x1="620" x2="558" y1="248" y2="310" opacity=".34"/>
<line x1="682" x2="620" y1="248" y2="310" opacity=".34"/>
<line x1="682" x2="744" y1="248" y2="310" opacity=".34"/>
<line x1="806" x2="744" y1="248" y2="310" opacity=".34"/>
<line x1="806" x2="868" y1="248" y2="310" opacity=".34"/>
<line x1="868" x2="930" y1="248" y2="310" opacity=".34"/>
<line x1="992" x2="930" y1="248" y2="310" opacity=".34"/>
<line x1="1054" x2="992" y1="248" y2="310" opacity=".34"/>
<line x1="1054" x2="1116" y1="248" y2="310" opacity=".34"/>
<line x1="1178" x2="1116" y1="248" y2="310" opacity=".34"/>
<line x1="1240" x2="1178" y1="248" y2="310" opacity=".34"/>
<line x1="1302" x2="1240" y1="248" y2="310" opacity=".34"/>
<line x1="1364" x2="1302" y1="248" y2="310" opacity=".34"/>
<line x1="1364" x2="1426" y1="248" y2="310" opacity=".34"/>
<line x1="62" y1="310" y2="372" opacity=".42"/>
<line x1="124" x2="62" y1="310" y2="372" opacity=".42"/>
<line x1="186" x2="124" y1="310" y2="372" opacity=".42"/>
<line x1="186" x2="248" y1="310" y2="372" opacity=".42"/>
<line x1="248" x2="310" y1="310" y2="372" opacity=".42"/>
<line x1="310" x2="372" y1="310" y2="372" opacity=".42"/>
<line x1="434" x2="372" y1="310" y2="372" opacity=".42"/>
<line x1="496" x2="434" y1="310" y2="372" opacity=".42"/>
<line x1="496" x2="558" y1="310" y2="372" opacity=".42"/>
<line x1="620" x2="558" y1="310" y2="372" opacity=".42"/>
<line x1="620" x2="682" y1="310" y2="372" opacity=".42"/>
<line x1="682" x2="744" y1="310" y2="372" opacity=".42"/>
<line x1="806" x2="744" y1="310" y2="372" opacity=".42"/>
<line x1="868" x2="806" y1="310" y2="372" opacity=".42"/>
<line x1="930" x2="868" y1="310" y2="372" opacity=".42"/>
<line x1="992" x2="930" y1="310" y2="372" opacity=".42"/>
<line x1="1054" x2="992" y1="310" y2="372" opacity=".42"/>
<line x1="1054" x2="1116" y1="310" y2="372" opacity=".42"/>
<line x1="1178" x2="1116" y1="310" y2="372" opacity=".42"/>
<line x1="1178" x2="1240" y1="310" y2="372" opacity=".42"/>
<line x1="1302" x2="1240" y1="310" y2="372" opacity=".42"/>
<line x1="1364" x2="1302" y1="310" y2="372" opacity=".42"/>
<line x1="1364" x2="1426" y1="310" y2="372" opacity=".42"/>
<line x1="62" y1="372" y2="434" opacity=".49"/>
<line x1="124" x2="62" y1="372" y2="434" opacity=".49"/>
<line x1="186" x2="124" y1="372" y2="434" opacity=".49"/>
<line x1="248" x2="186" y1="372" y2="434" opacity=".49"/>
<line x1="248" x2="310" y1="372" y2="434" opacity=".49"/>
<line x1="372" x2="310" y1="372" y2="434" opacity=".49"/>
<line x1="434" x2="372" y1="372" y2="434" opacity=".49"/>
<line x1="496" x2="434" y1="372" y2="434" opacity=".49"/>
<line x1="496" x2="558" y1="372" y2="434" opacity=".49"/>
<line x1="620" x2="558" y1="372" y2="434" opacity=".49"/>
<line x1="620" x2="682" y1="372" y2="434" opacity=".49"/>
<line x1="744" x2="682" y1="372" y2="434" opacity=".49"/>
<line x1="744" x2="806" y1="372" y2="434" opacity=".49"/>
<line x1="868" x2="806" y1="372" y2="434" opacity=".49"/>
<line x1="868" x2="930" y1="372" y2="434" opacity=".49"/>
<line x1="930" x2="992" y1="372" y2="434" opacity=".49"/>
<line x1="992" x2="1054" y1="372" y2="434" opacity=".49"/>
<line x1="1054" x2="1116" y1="372" y2="434" opacity=".49"/>
<line x1="1178" x2="1116" y1="372" y2="434" opacity=".49"/>
<line x1="1240" x2="1178" y1="372" y2="434" opacity=".49"/>
<line x1="1240" x2="1302" y1="372" y2="434" opacity=".49"/>
<line x1="1364" x2="1302" y1="372" y2="434" opacity=".49"/>
<line x1="1426" x2="1364" y1="372" y2="434" opacity=".49"/>
<line x2="62" y1="434" y2="496" opacity=".57"/>
<line x1="62" x2="124" y1="434" y2="496" opacity=".57"/>
<line x1="124" x2="186" y1="434" y2="496" opacity=".57"/>
<line x1="186" x2="248" y1="434" y2="496" opacity=".57"/>
<line x1="310" x2="248" y1="434" y2="496" opacity=".57"/>
<line x1="310" x2="372" y1="434" y2="496" opacity=".57"/>
<line x1="372" x2="434" y1="434" y2="496" opacity=".57"/>
<line x1="434" x2="496" y1="434" y2="496" opacity=".57"/>
<line x1="496" x2="558" y1="434" y2="496" opacity=".57"/>
<line x1="620" x2="558" y1="434" y2="496" opacity=".57"/>
<line x1="682" x2="620" y1="434" y2="496" opacity=".57"/>
<line x1="744" x2="682" y1="434" y2="496" opacity=".57"/>
<line x1="744" x2="806" y1="434" y2="496" opacity=".57"/>
<line x1="806" x2="868" y1="434" y2="496" opacity=".57"/>
<line x1="930" x2="868" y1="434" y2="496" opacity=".57"/>
<line x1="992" x2="930" y1="434" y2="496" opacity=".57"/>
<line x1="1054" x2="992" y1="434" y2="496" opacity=".57"/>
<line x1="1116" x2="1054" y1="434" y2="496" opacity=".57"/>
<line x1="1178" x2="1116" y1="434" y2="496" opacity=".57"/>
<line x1="1240" x2="1178" y1="434" y2="496" opacity=".57"/>
<line x1="1302" x2="1240" y1="434" y2="496" opacity=".57"/>
<line x1="1364" x2="1302" y1="434" y2="496" opacity=".57"/>
<line x1="1364" x2="1426" y1="434" y2="496" opacity=".57"/>
<line x2="62" y1="496" y2="558" opacity=".64"/>
<line x1="62" x2="124" y1="496" y2="558" opacity=".64"/>
<line x1="124" x2="186" y1="496" y2="558" opacity=".64"/>
<line x1="186" x2="248" y1="496" y2="558" opacity=".64"/>
<line x1="248" x2="310" y1="496" y2="558" opacity=".64"/>
<line x1="372" x2="310" y1="496" y2="558" opacity=".64"/>
<line x1="434" x2="372" y1="496" y2="558" opacity=".64"/>
<line x1="434" x2="496" y1="496" y2="558" opacity=".64"/>
<line x1="558" x2="496" y1="496" y2="558" opacity=".64"/>
<line x1="620" x2="558" y1="496" y2="558" opacity=".64"/>
<line x1="682" x2="620" y1="496" y2="558" opacity=".64"/>
<line x1="744" x2="682" y1="496" y2="558" opacity=".64"/>
<line x1="744" x2="806" y1="496" y2="558" opacity=".64"/>
<line x1="868" x2="806" y1="496" y2="558" opacity=".64"/>
<line x1="868" x2="930" y1="496" y2="558" opacity=".64"/>
<line x1="992" x2="930" y1="496" y2="558" opacity=".64"/>
<line x1="992" x2="1054" y1="496" y2="558" opacity=".64"/>
<line x1="1054" x2="1116" y1="496" y2="558" opacity=".64"/>
<line x1="1178" x2="1116" y1="496" y2="558" opacity=".64"/>
<line x1="1178" x2="1240" y1="496" y2="558" opacity=".64"/>
<line x1="1302" x2="1240" y1="496" y2="558" opacity=".64"/>
<line x1="1364" x2="1302" y1="496" y2="558" opacity=".64"/>
<line x1="1426" x2="1364" y1="496" y2="558" opacity=".64"/>
<line x2="62" y1="558" y2="620" opacity=".71"/>
<line x1="124" x2="62" y1="558" y2="620" opacity=".71"/>
<line x1="124" x2="186" y1="558" y2="620" opacity=".71"/>
<line x1="186" x2="248" y1="558" y2="620" opacity=".71"/>
<line x1="310" x2="248" y1="558" y2="620" opacity=".71"/>
<line x1="310" x2="372" y1="558" y2="620" opacity=".71"/>
<line x1="372" x2="434" y1="558" y2="620" opacity=".71"/>
<line x1="434" x2="496" y1="558" y2="620" opacity=".71"/>
<line x1="558" x2="496" y1="558" y2="620" opacity=".71"/>
<line x1="558" x2="620" y1="558" y2="620" opacity=".71"/>
<line x1="682" x2="620" y1="558" y2="620" opacity=".71"/>
<line x1="744" x2="682" y1="558" y2="620" opacity=".71"/>
<line x1="744" x2="806" y1="558" y2="620" opacity=".71"/>
<line x1="806" x2="868" y1="558" y2="620" opacity=".71"/>
<line x1="868" x2="930" y1="558" y2="620" opacity=".71"/>
<line x1="992" x2="930" y1="558" y2="620" opacity=".71"/>
<line x1="1054" x2="992" y1="558" y2="620" opacity=".71"/>
<line x1="1054" x2="1116" y1="558" y2="620" opacity=".71"/>
<line x1="1178" x2="1116" y1="558" y2="620" opacity=".71"/>
<line x1="1240" x2="1178" y1="558" y2="620" opacity=".71"/>
<line x1="1240" x2="1302" y1="558" y2="620" opacity=".71"/>
<line x1="1302" x2="1364" y1="558" y2="620" opacity=".71"/>
<line x1="1426" x2="1364" y1="558" y2="620" opacity=".71"/>
<line x2="62" y1="620" y2="682" opacity=".79"/>
<line x1="124" x2="62" y1="620" y2="682" opacity=".79"/>
<line x1="124" x2="186" y1="620" y2="682" opacity=".79"/>
<line x1="186" x2="248" y1="620" y2="682" opacity=".79"/>
<line x1="310" x2="248" y1="620" y2="682" opacity=".79"/>
<line x1="372" x2="310" y1="620" y2="682" opacity=".79"/>
<line x1="434" x2="372" y1="620" y2="682" opacity=".79"/>
<line x1="496" x2="434" y1="620" y2="682" opacity=".79"/>
<line x1="558" x2="496" y1="620" y2="682" opacity=".79"/>
<line x1="620" x2="558" y1="620" y2="682" opacity=".79"/>
<line x1="682" x2="620" y1="620" y2="682" opacity=".79"/>
<line x1="682" x2="744" y1="620" y2="682" opacity=".79"/>
<line x1="806" x2="744" y1="620" y2="682" opacity=".79"/>
<line x1="868" x2="806" y1="620" y2="682" opacity=".79"/>
<line x1="868" x2="930" y1="620" y2="682" opacity=".79"/>
<line x1="930" x2="992" y1="620" y2="682" opacity=".79"/>
<line x1="1054" x2="992" y1="620" y2="682" opacity=".79"/>
<line x1="1116" x2="1054" y1="620" y2="682" opacity=".79"/>
<line x1="1116" x2="1178" y1="620" y2="682" opacity=".79"/>
<line x1="1240" x2="1178" y1="620" y2="682" opacity=".79"/>
<line x1="1240" x2="1302" y1="620" y2="682" opacity=".79"/>
<line x1="1364" x2="1302" y1="620" y2="682" opacity=".79"/>
<line x1="1364" x2="1426" y1="620" y2="682" opacity=".79"/>
<line x1="62" y1="682" y2="744" opacity=".86"/>
<line x1="62" x2="124" y1="682" y2="744" opacity=".86"/>
<line x1="186" x2="124" y1="682" y2="744" opacity=".86"/>
<line x1="186" x2="248" y1="682" y2="744" opacity=".86"/>
<line x1="248" x2="310" y1="682" y2="744" opacity=".86"/>
<line x1="310" x2="372" y1="682" y2="744" opacity=".86"/>
<line x1="434" x2="372" y1="682" y2="744" opacity=".86"/>
<line x1="496" x2="434" y1="682" y2="744" opacity=".86"/>
<line x1="558" x2="496" y1="682" y2="744" opacity=".86"/>
<line x1="558" x2="620" y1="682" y2="744" opacity=".86"/>
<line x1="682" x2="620" y1="682" y2="744" opacity=".86"/>
<line x1="744" x2="682" y1="682" y2="744" opacity=".86"/>
<line x1="806" x2="744" y1="682" y2="744" opacity=".86"/>
<line x1="806" x2="868" y1="682" y2="744" opacity=".86"/>
<line x1="868" x2="930" y1="682" y2="744" opacity=".86"/>
<line x1="930" x2="992" y1="682" y2="744" opacity=".86"/>
<line x1="1054" x2="992" y1="682" y2="744" opacity=".86"/>
<line x1="1054" x2="1116" y1="682" y2="744" opacity=".86"/>
<line x1="1178" x2="1116" y1="682" y2="744" opacity=".86"/>
<line x1="1178" x2="1240" y1="682" y2="744" opacity=".86"/>
<line x1="1302" x2="1240" y1="682" y2="744" opacity=".86"/>
<line x1="1364" x2="1302" y1="682" y2="744" opacity=".86"/>
<line x1="1364" x2="1426" y1="682" y2="744" opacity=".86"/>
<line x2="62" y1="744" y2="806" opacity=".93"/>
<line x1="62" x2="124" y1="744" y2="806" opacity=".93"/>
<line x1="124" x2="186" y1="744" y2="806" opacity=".93"/>
<line x1="248" x2="186" y1="744" y2="806" opacity=".93"/>
<line x1="248" x2="310" y1="744" y2="806" opacity=".93"/>
<line x1="372" x2="310" y1="744" y2="806" opacity=".93"/>
<line x1="434" x2="372" y1="744" y2="806" opacity=".93"/>
<line x1="434" x2="496" y1="744" y2="806" opacity=".93"/>
<line x1="496" x2="558" y1="744" y2="806" opacity=".93"/>
<line x1="558" x2="620" y1="744" y2="806" opacity=".93"/>
<line x1="620" x2="682" y1="744" y2="806" opacity=".93"/>
<line x1="744" x2="682" y1="744" y2="806" opacity=".93"/>
<line x1="744" x2="806" y1="744" y2="806" opacity=".93"/>
<line x1="806" x2="868" y1="744" y2="806" opacity=".93"/>
<line x1="868" x2="930" y1="744" y2="806" opacity=".93"/>
<line x1="930" x2="992" y1="744" y2="806" opacity=".93"/>
<line x1="1054" x2="992" y1="744" y2="806" opacity=".93"/>
<line x1="1054" x2="1116" y1="744" y2="806" opacity=".93"/>
<line x1="1116" x2="1178" y1="744" y2="806" opacity=".93"/>
<line x1="1240" x2="1178" y1="744" y2="806" opacity=".93"/>
<line x1="1302" x2="1240" y1="744" y2="806" opacity=".93"/>
<line x1="1302" x2="1364" y1="744" y2="806" opacity=".93"/>
<line x1="1364" x2="1426" y1="744" y2="806" opacity=".93"/>
</g>
</svg>
