<?xml version="1.0" standalone="no"?><svg xmlns:xlink="http://www.w3.org/1999/xlink" xmlns="http://www.w3.org/2000/svg" viewBox="0 0 1000 199.997957794418" preserveAspectRatio="xMaxYMax slice"><g transform="scale(0.6807351940095303)"><rect x="0" y="0" width="1469" height="293.8" fill="#ffffff"/><rect x="0" y="0" width="29.38" height="29.38" fill="#3c7eca"/><rect x="0" y="0" width="29.38" height="29.38" fill="#e7b6b4"/><rect x="29.38" y="0" width="29.38" height="29.38" fill="#e5eef8"/><path d="M 29.38 0 A 29.38 29.38 0 0 1 58.76 29.38 L 29.38 29.38" fill="#df9f9d"/><rect x="58.76" y="0" width="29.38" height="29.38" fill="#5c94d3"/><path d="M 58.76 0 A 29.38 29.38 0 0 0 88.14 29.38 L 88.14 0" fill="#4383cc"/><rect x="88.14" y="0" width="29.38" height="29.38" fill="#c75552"/><path d="M 88.14 0 A 29.38 29.38 0 0 1  117.52 29.38 L 88.14 0 A 29.38 29.38 0 0 0 117.52 29.38" fill="#6197d5"/><rect x="117.52" y="0" width="29.38" height="29.38" fill="#fefbfb"/><rect x="117.52" y="0" width="29.38" height="29.38" fill="#f6e3e2"/><rect x="146.9" y="0" width="29.38" height="29.38" fill="#96bae3"/><polygon points="176.28,0 176.28,29.38 146.9,29.38" fill="#387cc9"/><rect x="176.28" y="0" width="29.38" height="29.38" fill="#eff5fb"/><rect x="176.28" y="0" width="29.38" height="29.38" fill="#fbfcfe"/><rect x="205.66" y="0" width="29.38" height="29.38" fill="#df9e9c"/><path d="M 205.66 0 A 29.38 29.38 0 0 0 235.04 29.38 L 235.04 0" fill="#cf6e6b"/><rect x="235.04" y="0" width="29.38" height="29.38" fill="#6499d5"/><rect x="235.04" y="0" width="29.38" height="29.38" fill="#508cd0"/><rect x="264.42" y="0" width="29.38" height="29.38" fill="#6a9dd7"/><rect x="264.42" y="0" width="29.38" height="29.38" fill="#a3c2e6"/><rect x="293.8" y="0" width="29.38" height="29.38" fill="#4b89cf"/><rect x="293.8" y="0" width="29.38" height="29.38" fill="#dae7f5"/><rect x="323.18" y="0" width="29.38" height="29.38" fill="#db918f"/><path d="M 323.18 29.38 A 29.38 29.38 0 0 0 352.56 0 L 323.18 0" fill="#c34946"/><rect x="352.56" y="0" width="29.38" height="29.38" fill="#ffffff"/><path d="M 352.56 29.38 A 29.38 29.38 0 0 1  381.94 0 L 352.56 29.38 A 29.38 29.38 0 0 0 381.94 0" fill="#d88987"/><rect x="381.94" y="0" width="29.38" height="29.38" fill="#d68481"/><rect x="381.94" y="0" width="29.38" height="29.38" fill="#f1d5d5"/><rect x="411.32" y="0" width="29.38" height="29.38" fill="#6197d4"/><path d="M 411.32 29.38 A 29.38 29.38 0 0 1  440.7 0 L 440.7 29.38" fill="#be3935"/><rect x="440.7" y="0" width="29.38" height="29.38" fill="#ba2e2a"/><polygon points="440.7,0 470.08,0 440.7,29.38" fill="#f9eceb"/><rect x="470.08" y="0" width="29.38" height="29.38" fill="#c75652"/><rect x="470.08" y="0" width="29.38" height="29.38" fill="#d0726f"/><rect x="499.46" y="0" width="29.38" height="29.38" fill="#226ec4"/><rect x="499.46" y="0" width="29.38" height="29.38" fill="#ca5e5b"/><rect x="528.84" y="0" width="29.38" height="29.38" fill="#cb615e"/><rect x="528.84" y="0" width="29.38" height="29.38" fill="#fefcfc"/><rect x="558.22" y="0" width="29.38" height="29.38" fill="#84aede"/><polygon points="558.22,0 587.6,29.38 558.22,29.38" fill="#e0a09e"/><rect x="587.6" y="0" width="29.38" height="29.38" fill="#cb605d"/><rect x="587.6" y="0" width="29.38" height="29.38" fill="#e0ebf7"/><rect x="616.98" y="0" width="29.38" height="29.38" fill="#dde9f6"/><polygon points="616.98,0 646.36,29.38 616.98,29.38" fill="#1666c0"/><rect x="646.36" y="0" width="29.38" height="29.38" fill="#f1d3d2"/><rect x="646.36" y="0" width="29.38" height="29.38" fill="#e3a9a7"/><rect x="675.74" y="0" width="29.38" height="29.38" fill="#ccdef1"/><polygon points="675.74,0 705.12,29.38 675.74,29.38" fill="#3b7eca"/><rect x="705.12" y="0" width="29.38" height="29.38" fill="#f5e1e1"/><rect x="705.12" y="0" width="29.38" height="29.38" fill="#2771c5"/><rect x="734.5" y="0" width="29.38" height="29.38" fill="#cadcf1"/><path d="M 734.5 0 A 29.38 29.38 0 0 1 763.88 29.38 L 734.5 29.38" fill="#72a2d9"/><rect x="763.88" y="0" width="29.38" height="29.38" fill="#fcf7f7"/><polygon points="763.88,0 793.26,29.38 763.88,29.38" fill="#d47b79"/><rect x="793.26" y="0" width="29.38" height="29.38" fill="#d9e6f5"/><polygon points="793.26,0 822.64,29.38 793.26,29.38" fill="#4e8acf"/><rect x="822.64" y="0" width="29.38" height="29.38" fill="#e2a7a6"/><polygon points="822.64,0 852.02,0 852.02,29.38" fill="#de9b99"/><rect x="852.02" y="0" width="29.38" height="29.38" fill="#97bbe3"/><path d="M 852.02 0 A 29.38 29.38 0 0 1  881.4 29.38 L 852.02 0 A 29.38 29.38 0 0 0 881.4 29.38" fill="#d37976"/><rect x="881.4" y="0" width="29.38" height="29.38" fill="#3278c8"/><rect x="881.4" y="0" width="29.38" height="29.38" fill="#b0cbea"/><rect x="910.78" y="0" width="29.38" height="29.38" fill="#528dd0"/><rect x="910.78" y="0" width="29.38" height="29.38" fill="#5690d1"/><rect x="940.16" y="0" width="29.38" height="29.38" fill="#bad1ec"/><path d="M 940.16 0 A 29.38 29.38 0 0 0 969.54 29.38 L 969.54 0" fill="#6c9ed7"/><rect x="969.54" y="0" width="29.38" height="29.38" fill="#cedff2"/><path d="M 969.54 0 A 29.38 29.38 0 0 1 998.92 29.38 L 969.54 29.38" fill="#de9b99"/><rect x="998.92" y="0" width="29.38" height="29.38" fill="#4484cd"/><path d="M 998.92 29.38 A 29.38 29.38 0 0 0 1028.3 0 L 998.92 0" fill="#c34946"/><rect x="1028.3" y="0" width="29.38" height="29.38" fill="#669ad6"/><rect x="1028.3" y="0" width="29.38" height="29.38" fill="#ca5e5b"/><rect x="1057.68" y="0" width="29.38" height="29.38" fill="#b7d0ec"/><path d="M 1057.68 29.38 A 29.38 29.38 0 0 1  1087.0600000000002 0 L 1087.0600000000002 29.38" fill="#fcf6f6"/><rect x="1087.06" y="0" width="29.38" height="29.38" fill="#c7daf0"/><polygon points="1087.06,0 1116.44,29.38 1087.06,29.38" fill="#5e95d4"/><rect x="1116.44" y="0" width="29.38" height="29.38" fill="#e7b7b6"/><polygon points="1116.44,0 1145.8200000000002,29.38 1116.44,29.38" fill="#fafcfe"/><rect x="1145.82" y="0" width="29.38" height="29.38" fill="#c75653"/><polygon points="1175.2,0 1175.2,29.38 1145.82,29.38" fill="#df9d9b"/><rect x="1175.2" y="0" width="29.38" height="29.38" fill="#fdf8f8"/><polygon points="1175.2,0 1204.5800000000002,29.38 1175.2,29.38" fill="#d88885"/><rect x="1204.58" y="0" width="29.38" height="29.38" fill="#1d6ac2"/><path d="M 1204.58 29.38 A 29.38 29.38 0 0 0 1233.96 0 L 1204.58 0" fill="#bed4ee"/><rect x="1233.96" y="0" width="29.38" height="29.38" fill="#c1d6ee"/><polygon points="1263.3400000000001,0 1263.3400000000001,29.38 1233.96,29.38" fill="#bcd3ed"/><rect x="1263.34" y="0" width="29.38" height="29.38" fill="#c85a57"/><path d="M 1263.34 0 A 29.38 29.38 0 0 0 1292.72 29.38 L 1292.72 0" fill="#f9ebeb"/><rect x="1292.72" y="0" width="29.38" height="29.38" fill="#538ed1"/><rect x="1292.72" y="0" width="29.38" height="29.38" fill="#206cc3"/><rect x="1322.1" y="0" width="29.38" height="29.38" fill="#ffffff"/><rect x="1322.1" y="0" width="29.38" height="29.38" fill="#98bbe3"/><rect x="1351.48" y="0" width="29.38" height="29.38" fill="#2872c5"/><rect x="1351.48" y="0" width="29.38" height="29.38" fill="#b9d1ec"/><rect x="1380.86" y="0" width="29.38" height="29.38" fill="#3d7fcb"/><path d="M 1380.86 0 A 29.38 29.38 0 0 1  1410.24 29.38 L 1380.86 0 A 29.38 29.38 0 0 0 1410.24 29.38" fill="#d17270"/><rect x="1410.24" y="0" width="29.38" height="29.38" fill="#95b9e2"/><polygon points="1410.24,0 1439.6200000000001,0 1410.24,29.38" fill="#4a88ce"/><rect x="1439.62" y="0" width="29.38" height="29.38" fill="#f3dbda"/><rect x="1439.62" y="0" width="29.38" height="29.38" fill="#d88a87"/><rect x="0" y="29.38" width="29.38" height="29.38" fill="#eecbca"/><path d="M 0 29.38 A 29.38 29.38 0 0 1  29.38 58.76 L 0 29.38 A 29.38 29.38 0 0 0 29.38 58.76" fill="#5891d2"/><rect x="29.38" y="29.38" width="29.38" height="29.38" fill="#2b74c6"/><polygon points="58.76,29.38 58.76,58.76 29.38,58.76" fill="#1a68c1"/><rect x="58.76" y="29.38" width="29.38" height="29.38" fill="#2c74c6"/><polygon points="88.14,29.38 88.14,58.76 58.76,58.76" fill="#5791d2"/><rect x="88.14" y="29.38" width="29.38" height="29.38" fill="#9ebfe5"/><polygon points="88.14,29.38 117.52,29.38 117.52,58.76" fill="#b92c28"/><rect x="117.52" y="29.38" width="29.38" height="29.38" fill="#d68482"/><polygon points="117.52,29.38 146.9,58.76 117.52,58.76" fill="#7daadc"/><rect x="146.9" y="29.38" width="29.38" height="29.38" fill="#e1a5a3"/><path d="M 146.9 58.76 A 29.38 29.38 0 0 0 176.28 29.38 L 146.9 29.38" fill="#c44d4a"/><rect x="176.28" y="29.38" width="29.38" height="29.38" fill="#4c89cf"/><polygon points="176.28,29.38 205.66,58.76 176.28,58.76" fill="#fbf2f1"/><rect x="205.66" y="29.38" width="29.38" height="29.38" fill="#d27775"/><rect x="205.66" y="29.38" width="29.38" height="29.38" fill="#f0d2d1"/><rect x="235.04" y="29.38" width="29.38" height="29.38" fill="#548ed1"/><polygon points="264.42,29.38 264.42,58.76 235.04,58.76" fill="#f9eceb"/><rect x="264.42" y="29.38" width="29.38" height="29.38" fill="#efcecd"/><path d="M 264.42 58.76 A 29.38 29.38 0 0 1  293.8 29.38 L 264.42 58.76 A 29.38 29.38 0 0 0 293.8 29.38" fill="#c8dbf0"/><rect x="293.8" y="29.38" width="29.38" height="29.38" fill="#e0a19f"/><polygon points="293.8,29.38 323.18,29.38 323.18,58.76" fill="#e1ebf7"/><rect x="323.18" y="29.38" width="29.38" height="29.38" fill="#ba2e2a"/><rect x="323.18" y="29.38" width="29.38" height="29.38" fill="#c6524f"/><rect x="352.56" y="29.38" width="29.38" height="29.38" fill="#fcf7f6"/><path d="M 352.56 58.76 A 29.38 29.38 0 0 1  381.94 29.38 L 352.56 58.76 A 29.38 29.38 0 0 0 381.94 29.38" fill="#8ab2e0"/><rect x="381.94" y="29.38" width="29.38" height="29.38" fill="#fefeff"/><path d="M 381.94 58.76 A 29.38 29.38 0 0 1  411.32 29.38 L 411.32 58.76" fill="#a5c4e7"/><rect x="411.32" y="29.38" width="29.38" height="29.38" fill="#75a4da"/><rect x="411.32" y="29.38" width="29.38" height="29.38" fill="#d88886"/><rect x="440.7" y="29.38" width="29.38" height="29.38" fill="#bed4ee"/><rect x="440.7" y="29.38" width="29.38" height="29.38" fill="#c0413e"/><rect x="470.08" y="29.38" width="29.38" height="29.38" fill="#d98c8a"/><rect x="470.08" y="29.38" width="29.38" height="29.38" fill="#b9d1ec"/><rect x="499.46" y="29.38" width="29.38" height="29.38" fill="#edf3fa"/><rect x="499.46" y="29.38" width="29.38" height="29.38" fill="#fefdfd"/><rect x="528.84" y="29.38" width="29.38" height="29.38" fill="#f2d8d7"/><polygon points="528.84,29.38 558.22,29.38 528.84,58.76" fill="#faf0f0"/><rect x="558.22" y="29.38" width="29.38" height="29.38" fill="#d78582"/><polygon points="587.6,29.38 587.6,58.76 558.22,58.76" fill="#397dca"/><rect x="587.6" y="29.38" width="29.38" height="29.38" fill="#fbf3f3"/><path d="M 587.6 29.38 A 29.38 29.38 0 0 1  616.98 58.76 L 587.6 29.38 A 29.38 29.38 0 0 0 616.98 58.76" fill="#cedef2"/><rect x="616.98" y="29.38" width="29.38" height="29.38" fill="#c7daf0"/><path d="M 616.98 58.76 A 29.38 29.38 0 0 1  646.36 29.38 L 646.36 58.76" fill="#dc9593"/><rect x="646.36" y="29.38" width="29.38" height="29.38" fill="#d88a88"/><rect x="646.36" y="29.38" width="29.38" height="29.38" fill="#bc332f"/><rect x="675.74" y="29.38" width="29.38" height="29.38" fill="#4786ce"/><polygon points="675.74,29.38 705.12,29.38 705.12,58.76" fill="#7da9dc"/><rect x="705.12" y="29.38" width="29.38" height="29.38" fill="#cadcf1"/><polygon points="705.12,29.38 734.5,29.38 734.5,58.76" fill="#246fc4"/><rect x="734.5" y="29.38" width="29.38" height="29.38" fill="#f6e5e4"/><path d="M 734.5 58.76 A 29.38 29.38 0 0 0 763.88 29.38 L 734.5 29.38" fill="#b9d1ec"/><rect x="763.88" y="29.38" width="29.38" height="29.38" fill="#bd3632"/><path d="M 763.88 58.76 A 29.38 29.38 0 0 0 793.26 29.38 L 763.88 29.38" fill="#4081cc"/><rect x="793.26" y="29.38" width="29.38" height="29.38" fill="#f8fafd"/><path d="M 793.26 58.76 A 29.38 29.38 0 0 1  822.64 29.38 L 793.26 58.76 A 29.38 29.38 0 0 0 822.64 29.38" fill="#c1423f"/><rect x="822.64" y="29.38" width="29.38" height="29.38" fill="#c85956"/><rect x="822.64" y="29.38" width="29.38" height="29.38" fill="#bf3e3b"/><rect x="852.02" y="29.38" width="29.38" height="29.38" fill="#6e9fd8"/><rect x="852.02" y="29.38" width="29.38" height="29.38" fill="#b92b27"/><rect x="881.4" y="29.38" width="29.38" height="29.38" fill="#e8b9b8"/><polygon points="881.4,29.38 910.78,29.38 910.78,58.76" fill="#e0a2a0"/><rect x="910.78" y="29.38" width="29.38" height="29.38" fill="#fefdfd"/><polygon points="910.78,29.38 940.16,58.76 910.78,58.76" fill="#d37976"/><rect x="940.16" y="29.38" width="29.38" height="29.38" fill="#ffffff"/><path d="M 940.16 58.76 A 29.38 29.38 0 0 1  969.54 29.38 L 940.16 58.76 A 29.38 29.38 0 0 0 969.54 29.38" fill="#d98c8a"/><rect x="969.54" y="29.38" width="29.38" height="29.38" fill="#77a5da"/><path d="M 969.54 29.38 A 29.38 29.38 0 0 1  998.92 58.76 L 969.54 29.38 A 29.38 29.38 0 0 0 998.92 58.76" fill="#fcf6f6"/><rect x="998.92" y="29.38" width="29.38" height="29.38" fill="#ce6c69"/><polygon points="998.92,29.38 1028.3,58.76 998.92,58.76" fill="#d5807e"/><rect x="1028.3" y="29.38" width="29.38" height="29.38" fill="#d37a77"/><polygon points="1028.3,29.38 1057.68,29.38 1028.3,58.76" fill="#dae7f5"/><rect x="1057.68" y="29.38" width="29.38" height="29.38" fill="#db918f"/><path d="M 1057.68 58.76 A 29.38 29.38 0 0 1  1087.0600000000002 29.38 L 1087.0600000000002 58.76" fill="#f6e2e2"/><rect x="1087.06" y="29.38" width="29.38" height="29.38" fill="#bbd2ed"/><polygon points="1116.44,29.38 1116.44,58.76 1087.06,58.76" fill="#f4dddd"/><rect x="1116.44" y="29.38" width="29.38" height="29.38" fill="#98bbe3"/><polygon points="1116.44,29.38 1145.8200000000002,29.38 1116.44,58.76" fill="#d68280"/><rect x="1145.82" y="29.38" width="29.38" height="29.38" fill="#d5817f"/><path d="M 1145.82 29.38 A 29.38 29.38 0 0 0 1175.2 58.76 L 1175.2 29.38" fill="#cd6764"/><rect x="1175.2" y="29.38" width="29.38" height="29.38" fill="#fbfdfe"/><path d="M 1175.2 58.76 A 29.38 29.38 0 0 0 1204.5800000000002 29.38 L 1175.2 29.38" fill="#c54f4c"/><rect x="1204.58" y="29.38" width="29.38" height="29.38" fill="#a5c4e7"/><path d="M 1204.58 58.76 A 29.38 29.38 0 0 1  1233.96 29.38 L 1233.96 58.76" fill="#e4aead"/><rect x="1233.96" y="29.38" width="29.38" height="29.38" fill="#1b69c2"/><polygon points="1233.96,29.38 1263.3400000000001,29.38 1233.96,58.76" fill="#d68280"/><rect x="1263.34" y="29.38" width="29.38" height="29.38" fill="#d68380"/><polygon points="1263.34,29.38 1292.72,29.38 1292.72,58.76" fill="#90b6e1"/><rect x="1292.72" y="29.38" width="29.38" height="29.38" fill="#7da9dc"/><path d="M 1292.72 29.38 A 29.38 29.38 0 0 0 1322.1000000000001 58.76 L 1322.1000000000001 29.38" fill="#c24844"/><rect x="1322.1" y="29.38" width="29.38" height="29.38" fill="#3177c8"/><rect x="1322.1" y="29.38" width="29.38" height="29.38" fill="#d78684"/><rect x="1351.48" y="29.38" width="29.38" height="29.38" fill="#eabebd"/><path d="M 1351.48 58.76 A 29.38 29.38 0 0 1  1380.8600000000001 29.38 L 1351.48 58.76 A 29.38 29.38 0 0 0 1380.8600000000001 29.38" fill="#97bbe3"/><rect x="1380.86" y="29.38" width="29.38" height="29.38" fill="#edc9c8"/><rect x="1380.86" y="29.38" width="29.38" height="29.38" fill="#e8b8b7"/><rect x="1410.24" y="29.38" width="29.38" height="29.38" fill="#1967c1"/><path d="M 1410.24 58.76 A 29.38 29.38 0 0 0 1439.6200000000001 29.38 L 1410.24 29.38" fill="#4987ce"/><rect x="1439.62" y="29.38" width="29.38" height="29.38" fill="#d98d8a"/><rect x="1439.62" y="29.38" width="29.38" height="29.38" fill="#6499d5"/><rect x="0" y="58.76" width="29.38" height="29.38" fill="#3077c7"/><polygon points="0,58.76 29.38,58.76 29.38,88.14" fill="#dbe7f5"/><rect x="29.38" y="58.76" width="29.38" height="29.38" fill="#ba2e2a"/><rect x="29.38" y="58.76" width="29.38" height="29.38" fill="#a2c2e6"/><rect x="58.76" y="58.76" width="29.38" height="29.38" fill="#e2ecf7"/><polygon points="88.14,58.76 88.14,88.14 58.76,88.14" fill="#3479c8"/><rect x="88.14" y="58.76" width="29.38" height="29.38" fill="#f6f9fd"/><polygon points="88.14,58.76 117.52,58.76 88.14,88.14" fill="#ebc2c1"/><rect x="117.52" y="58.76" width="29.38" height="29.38" fill="#3b7eca"/><polygon points="117.52,58.76 146.9,88.14 117.52,88.14" fill="#e2a6a4"/><rect x="146.9" y="58.76" width="29.38" height="29.38" fill="#97bbe3"/><path d="M 146.9 88.14 A 29.38 29.38 0 0 0 176.28 58.76 L 146.9 58.76" fill="#3278c8"/><rect x="176.28" y="58.76" width="29.38" height="29.38" fill="#c8dbf0"/><path d="M 176.28 88.14 A 29.38 29.38 0 0 1  205.66 58.76 L 205.66 88.14" fill="#cc6461"/><rect x="205.66" y="58.76" width="29.38" height="29.38" fill="#d6827f"/><polygon points="235.04,58.76 235.04,88.14 205.66,88.14" fill="#bcd3ed"/><rect x="235.04" y="58.76" width="29.38" height="29.38" fill="#e7b6b5"/><path d="M 235.04 88.14 A 29.38 29.38 0 0 1  264.42 58.76 L 264.42 88.14" fill="#be3b37"/><rect x="264.42" y="58.76" width="29.38" height="29.38" fill="#3077c7"/><polygon points="293.8,58.76 293.8,88.14 264.42,88.14" fill="#eecbca"/><rect x="293.8" y="58.76" width="29.38" height="29.38" fill="#5b93d3"/><path d="M 293.8 58.76 A 29.38 29.38 0 0 0 323.18 88.14 L 323.18 58.76" fill="#d8e5f4"/><rect x="323.18" y="58.76" width="29.38" height="29.38" fill="#bdd3ed"/><rect x="323.18" y="58.76" width="29.38" height="29.38" fill="#c6524f"/><rect x="352.56" y="58.76" width="29.38" height="29.38" fill="#ccdef1"/><path d="M 352.56 58.76 A 29.38 29.38 0 0 1  381.94 88.14 L 352.56 58.76 A 29.38 29.38 0 0 0 381.94 88.14" fill="#e7b5b4"/><rect x="381.94" y="58.76" width="29.38" height="29.38" fill="#fafcfe"/><rect x="381.94" y="58.76" width="29.38" height="29.38" fill="#eecccb"/><rect x="411.32" y="58.76" width="29.38" height="29.38" fill="#bf3d39"/><polygon points="411.32,58.76 440.7,58.76 411.32,88.14" fill="#d2e1f3"/><rect x="440.7" y="58.76" width="29.38" height="29.38" fill="#f4f8fc"/><path d="M 440.7 58.76 A 29.38 29.38 0 0 0 470.08 88.14 L 470.08 58.76" fill="#d5817e"/><rect x="470.08" y="58.76" width="29.38" height="29.38" fill="#ca5d5a"/><path d="M 470.08 88.14 A 29.38 29.38 0 0 1  499.46 58.76 L 470.08 88.14 A 29.38 29.38 0 0 0 499.46 58.76" fill="#7fabdc"/><rect x="499.46" y="58.76" width="29.38" height="29.38" fill="#d78583"/><rect x="499.46" y="58.76" width="29.38" height="29.38" fill="#c6514e"/><rect x="528.84" y="58.76" width="29.38" height="29.38" fill="#ecc6c5"/><polygon points="528.84,58.76 558.22,58.76 528.84,88.14" fill="#f5f9fc"/><rect x="558.22" y="58.76" width="29.38" height="29.38" fill="#85afde"/><rect x="558.22" y="58.76" width="29.38" height="29.38" fill="#7fabdd"/><rect x="587.6" y="58.76" width="29.38" height="29.38" fill="#f0d2d1"/><rect x="587.6" y="58.76" width="29.38" height="29.38" fill="#79a7db"/><rect x="616.98" y="58.76" width="29.38" height="29.38" fill="#90b6e1"/><polygon points="646.36,58.76 646.36,88.14 616.98,88.14" fill="#1867c1"/><rect x="646.36" y="58.76" width="29.38" height="29.38" fill="#6a9dd7"/><path d="M 646.36 88.14 A 29.38 29.38 0 0 1  675.74 58.76 L 646.36 88.14 A 29.38 29.38 0 0 0 675.74 58.76" fill="#c14340"/><rect x="675.74" y="58.76" width="29.38" height="29.38" fill="#cb615e"/><path d="M 675.74 58.76 A 29.38 29.38 0 0 1 705.12 88.14 L 675.74 88.14" fill="#c24744"/><rect x="705.12" y="58.76" width="29.38" height="29.38" fill="#be3935"/><path d="M 705.12 58.76 A 29.38 29.38 0 0 1 734.5 88.14 L 705.12 88.14" fill="#4786cd"/><rect x="734.5" y="58.76" width="29.38" height="29.38" fill="#c7daf0"/><path d="M 734.5 88.14 A 29.38 29.38 0 0 1  763.88 58.76 L 734.5 88.14 A 29.38 29.38 0 0 0 763.88 58.76" fill="#d88987"/><rect x="763.88" y="58.76" width="29.38" height="29.38" fill="#80abdd"/><polygon points="793.26,58.76 793.26,88.14 763.88,88.14" fill="#7aa8db"/><rect x="793.26" y="58.76" width="29.38" height="29.38" fill="#c1423e"/><path d="M 793.26 58.76 A 29.38 29.38 0 0 1 822.64 88.14 L 793.26 88.14" fill="#c14541"/><rect x="822.64" y="58.76" width="29.38" height="29.38" fill="#f6f9fc"/><polygon points="852.02,58.76 852.02,88.14 822.64,88.14" fill="#b4cdeb"/><rect x="852.02" y="58.76" width="29.38" height="29.38" fill="#c85754"/><polygon points="852.02,58.76 881.4,58.76 852.02,88.14" fill="#7aa8db"/><rect x="881.4" y="58.76" width="29.38" height="29.38" fill="#93b8e2"/><polygon points="910.78,58.76 910.78,88.14 881.4,88.14" fill="#bd3834"/><rect x="910.78" y="58.76" width="29.38" height="29.38" fill="#dd9896"/><polygon points="910.78,58.76 940.16,88.14 910.78,88.14" fill="#bc3430"/><rect x="940.16" y="58.76" width="29.38" height="29.38" fill="#3479c8"/><rect x="940.16" y="58.76" width="29.38" height="29.38" fill="#fcfdfe"/><rect x="969.54" y="58.76" width="29.38" height="29.38" fill="#699dd7"/><path d="M 969.54 58.76 A 29.38 29.38 0 0 1  998.92 88.14 L 969.54 58.76 A 29.38 29.38 0 0 0 998.92 88.14" fill="#c5d9ef"/><rect x="998.92" y="58.76" width="29.38" height="29.38" fill="#90b6e1"/><polygon points="998.92,58.76 1028.3,58.76 998.92,88.14" fill="#f2d8d7"/><rect x="1028.3" y="58.76" width="29.38" height="29.38" fill="#347ac8"/><rect x="1028.3" y="58.76" width="29.38" height="29.38" fill="#d68381"/><rect x="1057.68" y="58.76" width="29.38" height="29.38" fill="#1867c1"/><path d="M 1057.68 58.76 A 29.38 29.38 0 0 1 1087.0600000000002 88.14 L 1057.68 88.14" fill="#bad1ec"/><rect x="1087.06" y="58.76" width="29.38" height="29.38" fill="#5891d2"/><path d="M 1087.06 88.14 A 29.38 29.38 0 0 0 1116.44 58.76 L 1087.06 58.76" fill="#eac1bf"/><rect x="1116.44" y="58.76" width="29.38" height="29.38" fill="#cfe0f2"/><polygon points="1116.44,58.76 1145.8200000000002,58.76 1116.44,88.14" fill="#f3dada"/><rect x="1145.82" y="58.76" width="29.38" height="29.38" fill="#dd9795"/><rect x="1145.82" y="58.76" width="29.38" height="29.38" fill="#5a92d2"/><rect x="1175.2" y="58.76" width="29.38" height="29.38" fill="#c6daf0"/><path d="M 1175.2 88.14 A 29.38 29.38 0 0 0 1204.5800000000002 58.76 L 1175.2 58.76" fill="#4e8bcf"/><rect x="1204.58" y="58.76" width="29.38" height="29.38" fill="#ce6966"/><polygon points="1204.58,58.76 1233.96,58.76 1233.96,88.14" fill="#bb302c"/><rect x="1233.96" y="58.76" width="29.38" height="29.38" fill="#d0726f"/><path d="M 1233.96 58.76 A 29.38 29.38 0 0 0 1263.3400000000001 88.14 L 1263.3400000000001 58.76" fill="#74a3d9"/><rect x="1263.34" y="58.76" width="29.38" height="29.38" fill="#f4dede"/><path d="M 1263.34 58.76 A 29.38 29.38 0 0 1  1292.72 88.14 L 1263.34 58.76 A 29.38 29.38 0 0 0 1292.72 88.14" fill="#dae7f5"/><rect x="1292.72" y="58.76" width="29.38" height="29.38" fill="#a8c6e8"/><path d="M 1292.72 58.76 A 29.38 29.38 0 0 0 1322.1000000000001 88.14 L 1322.1000000000001 58.76" fill="#da8f8d"/><rect x="1322.1" y="58.76" width="29.38" height="29.38" fill="#b1ccea"/><rect x="1322.1" y="58.76" width="29.38" height="29.38" fill="#c03f3b"/><rect x="1351.48" y="58.76" width="29.38" height="29.38" fill="#1c6ac2"/><polygon points="1380.8600000000001,58.76 1380.8600000000001,88.14 1351.48,88.14" fill="#6297d5"/><rect x="1380.86" y="58.76" width="29.38" height="29.38" fill="#efcfce"/><rect x="1380.86" y="58.76" width="29.38" height="29.38" fill="#99bce4"/><rect x="1410.24" y="58.76" width="29.38" height="29.38" fill="#fcf7f7"/><polygon points="1410.24,58.76 1439.6200000000001,58.76 1439.6200000000001,88.14" fill="#df9d9b"/><rect x="1439.62" y="58.76" width="29.38" height="29.38" fill="#e6b2b0"/><rect x="1439.62" y="58.76" width="29.38" height="29.38" fill="#f3dbdb"/><rect x="0" y="88.14" width="29.38" height="29.38" fill="#dc9593"/><rect x="0" y="88.14" width="29.38" height="29.38" fill="#d27673"/><rect x="29.38" y="88.14" width="29.38" height="29.38" fill="#cbddf1"/><polygon points="29.38,88.14 58.76,88.14 58.76,117.52" fill="#d47b79"/><rect x="58.76" y="88.14" width="29.38" height="29.38" fill="#5f96d4"/><rect x="58.76" y="88.14" width="29.38" height="29.38" fill="#a5c4e7"/><rect x="88.14" y="88.14" width="29.38" height="29.38" fill="#cf6e6b"/><rect x="88.14" y="88.14" width="29.38" height="29.38" fill="#c0403c"/><rect x="117.52" y="88.14" width="29.38" height="29.38" fill="#f7e6e6"/><polygon points="117.52,88.14 146.9,117.52 117.52,117.52" fill="#8cb3e0"/><rect x="146.9" y="88.14" width="29.38" height="29.38" fill="#9fc0e5"/><polygon points="176.28,88.14 176.28,117.52 146.9,117.52" fill="#83adde"/><rect x="176.28" y="88.14" width="29.38" height="29.38" fill="#246fc4"/><rect x="176.28" y="88.14" width="29.38" height="29.38" fill="#ce6b68"/><rect x="205.66" y="88.14" width="29.38" height="29.38" fill="#d37a77"/><path d="M 205.66 117.52 A 29.38 29.38 0 0 1  235.04 88.14 L 205.66 117.52 A 29.38 29.38 0 0 0 235.04 88.14" fill="#f5e1e1"/><rect x="235.04" y="88.14" width="29.38" height="29.38" fill="#8bb3e0"/><polygon points="235.04,88.14 264.42,88.14 235.04,117.52" fill="#e9bcbb"/><rect x="264.42" y="88.14" width="29.38" height="29.38" fill="#c0413e"/><rect x="264.42" y="88.14" width="29.38" height="29.38" fill="#d78583"/><rect x="293.8" y="88.14" width="29.38" height="29.38" fill="#f4f8fc"/><path d="M 293.8 88.14 A 29.38 29.38 0 0 1 323.18 117.52 L 293.8 117.52" fill="#83aede"/><rect x="323.18" y="88.14" width="29.38" height="29.38" fill="#d27673"/><rect x="323.18" y="88.14" width="29.38" height="29.38" fill="#6398d5"/><rect x="352.56" y="88.14" width="29.38" height="29.38" fill="#b5cfeb"/><rect x="352.56" y="88.14" width="29.38" height="29.38" fill="#c34a46"/><rect x="381.94" y="88.14" width="29.38" height="29.38" fill="#f0d1d0"/><polygon points="381.94,88.14 411.32,88.14 411.32,117.52" fill="#d27673"/><rect x="411.32" y="88.14" width="29.38" height="29.38" fill="#78a6db"/><polygon points="440.7,88.14 440.7,117.52 411.32,117.52" fill="#abc8e8"/><rect x="440.7" y="88.14" width="29.38" height="29.38" fill="#aac7e8"/><polygon points="440.7,88.14 470.08,88.14 440.7,117.52" fill="#efcfce"/><rect x="470.08" y="88.14" width="29.38" height="29.38" fill="#adc9e9"/><path d="M 470.08 117.52 A 29.38 29.38 0 0 1  499.46 88.14 L 499.46 117.52" fill="#dbe7f5"/><rect x="499.46" y="88.14" width="29.38" height="29.38" fill="#d17270"/><path d="M 499.46 88.14 A 29.38 29.38 0 0 0 528.84 117.52 L 528.84 88.14" fill="#b7d0ec"/><rect x="528.84" y="88.14" width="29.38" height="29.38" fill="#eac1bf"/><polygon points="528.84,88.14 558.22,88.14 528.84,117.52" fill="#9bbde4"/><rect x="558.22" y="88.14" width="29.38" height="29.38" fill="#f9ecec"/><polygon points="558.22,88.14 587.6,88.14 587.6,117.52" fill="#de9c9a"/><rect x="587.6" y="88.14" width="29.38" height="29.38" fill="#2670c5"/><rect x="587.6" y="88.14" width="29.38" height="29.38" fill="#d88987"/><rect x="616.98" y="88.14" width="29.38" height="29.38" fill="#d27876"/><polygon points="616.98,88.14 646.36,117.52 616.98,117.52" fill="#2e75c7"/><rect x="646.36" y="88.14" width="29.38" height="29.38" fill="#c95b58"/><path d="M 646.36 117.52 A 29.38 29.38 0 0 0 675.74 88.14 L 646.36 88.14" fill="#afcbea"/><rect x="675.74" y="88.14" width="29.38" height="29.38" fill="#7fabdd"/><polygon points="675.74,88.14 705.12,88.14 675.74,117.52" fill="#d47e7b"/><rect x="705.12" y="88.14" width="29.38" height="29.38" fill="#1c69c2"/><path d="M 705.12 117.52 A 29.38 29.38 0 0 0 734.5 88.14 L 705.12 88.14" fill="#d2e1f3"/><rect x="734.5" y="88.14" width="29.38" height="29.38" fill="#4484cd"/><path d="M 734.5 88.14 A 29.38 29.38 0 0 1 763.88 117.52 L 734.5 117.52" fill="#bd3734"/><rect x="763.88" y="88.14" width="29.38" height="29.38" fill="#82addd"/><polygon points="763.88,88.14 793.26,88.14 793.26,117.52" fill="#c6514e"/><rect x="793.26" y="88.14" width="29.38" height="29.38" fill="#7aa7db"/><rect x="793.26" y="88.14" width="29.38" height="29.38" fill="#da8e8c"/><rect x="822.64" y="88.14" width="29.38" height="29.38" fill="#de9b99"/><path d="M 822.64 117.52 A 29.38 29.38 0 0 1  852.02 88.14 L 852.02 117.52" fill="#ba2f2b"/><rect x="852.02" y="88.14" width="29.38" height="29.38" fill="#ebf2fa"/><polygon points="852.02,88.14 881.4,117.52 852.02,117.52" fill="#70a1d9"/><rect x="881.4" y="88.14" width="29.38" height="29.38" fill="#e1a3a1"/><path d="M 881.4 117.52 A 29.38 29.38 0 0 1  910.78 88.14 L 881.4 117.52 A 29.38 29.38 0 0 0 910.78 88.14" fill="#ebc1c0"/><rect x="910.78" y="88.14" width="29.38" height="29.38" fill="#d47e7c"/><rect x="910.78" y="88.14" width="29.38" height="29.38" fill="#eff4fb"/><rect x="940.16" y="88.14" width="29.38" height="29.38" fill="#6599d5"/><path d="M 940.16 117.52 A 29.38 29.38 0 0 1  969.54 88.14 L 969.54 117.52" fill="#4585cd"/><rect x="969.54" y="88.14" width="29.38" height="29.38" fill="#2972c5"/><polygon points="969.54,88.14 998.92,88.14 969.54,117.52" fill="#2c74c6"/><rect x="998.92" y="88.14" width="29.38" height="29.38" fill="#f6e2e2"/><path d="M 998.92 88.14 A 29.38 29.38 0 0 1 1028.3 117.52 L 998.92 117.52" fill="#f8e9e9"/><rect x="1028.3" y="88.14" width="29.38" height="29.38" fill="#1e6bc3"/><path d="M 1028.3 88.14 A 29.38 29.38 0 0 0 1057.68 117.52 L 1057.68 88.14" fill="#c95d5a"/><rect x="1057.68" y="88.14" width="29.38" height="29.38" fill="#ebc1c0"/><polygon points="1057.68,88.14 1087.0600000000002,88.14 1087.0600000000002,117.52" fill="#7fabdd"/><rect x="1087.06" y="88.14" width="29.38" height="29.38" fill="#cfdff2"/><path d="M 1087.06 88.14 A 29.38 29.38 0 0 1 1116.44 117.52 L 1087.06 117.52" fill="#92b7e2"/><rect x="1116.44" y="88.14" width="29.38" height="29.38" fill="#f9fbfd"/><rect x="1116.44" y="88.14" width="29.38" height="29.38" fill="#3f81cb"/><rect x="1145.82" y="88.14" width="29.38" height="29.38" fill="#e1ebf7"/><path d="M 1145.82 88.14 A 29.38 29.38 0 0 1 1175.2 117.52 L 1145.82 117.52" fill="#e0a1a0"/><rect x="1175.2" y="88.14" width="29.38" height="29.38" fill="#b0cbea"/><polygon points="1204.5800000000002,88.14 1204.5800000000002,117.52 1175.2,117.52" fill="#ebf2fa"/><rect x="1204.58" y="88.14" width="29.38" height="29.38" fill="#1e6bc2"/><rect x="1204.58" y="88.14" width="29.38" height="29.38" fill="#3479c8"/><rect x="1233.96" y="88.14" width="29.38" height="29.38" fill="#226dc3"/><path d="M 1233.96 88.14 A 29.38 29.38 0 0 1 1263.3400000000001 117.52 L 1233.96 117.52" fill="#d78582"/><rect x="1263.34" y="88.14" width="29.38" height="29.38" fill="#eac0be"/><rect x="1263.34" y="88.14" width="29.38" height="29.38" fill="#b7cfec"/><rect x="1292.72" y="88.14" width="29.38" height="29.38" fill="#e8b9b8"/><path d="M 1292.72 117.52 A 29.38 29.38 0 0 1  1322.1000000000001 88.14 L 1292.72 117.52 A 29.38 29.38 0 0 0 1322.1000000000001 88.14" fill="#b92b27"/><rect x="1322.1" y="88.14" width="29.38" height="29.38" fill="#d98b89"/><rect x="1322.1" y="88.14" width="29.38" height="29.38" fill="#ce6c69"/><rect x="1351.48" y="88.14" width="29.38" height="29.38" fill="#6398d5"/><polygon points="1351.48,88.14 1380.8600000000001,88.14 1380.8600000000001,117.52" fill="#c24643"/><rect x="1380.86" y="88.14" width="29.38" height="29.38" fill="#2e75c7"/><polygon points="1410.24,88.14 1410.24,117.52 1380.86,117.52" fill="#b9d1ec"/><rect x="1410.24" y="88.14" width="29.38" height="29.38" fill="#7fabdd"/><path d="M 1410.24 88.14 A 29.38 29.38 0 0 1  1439.6200000000001 117.52 L 1410.24 88.14 A 29.38 29.38 0 0 0 1439.6200000000001 117.52" fill="#72a2d9"/><rect x="1439.62" y="88.14" width="29.38" height="29.38" fill="#e8b8b7"/><polygon points="1439.62,88.14 1469,117.52 1439.62,117.52" fill="#679bd6"/><rect x="0" y="117.52" width="29.38" height="29.38" fill="#fefcfc"/><polygon points="0,117.52 29.38,117.52 29.38,146.9" fill="#d78785"/><rect x="29.38" y="117.52" width="29.38" height="29.38" fill="#dfeaf6"/><rect x="29.38" y="117.52" width="29.38" height="29.38" fill="#2f76c7"/><rect x="58.76" y="117.52" width="29.38" height="29.38" fill="#d37a77"/><rect x="58.76" y="117.52" width="29.38" height="29.38" fill="#cd6865"/><rect x="88.14" y="117.52" width="29.38" height="29.38" fill="#dc9694"/><path d="M 88.14 146.9 A 29.38 29.38 0 0 1  117.52 117.52 L 88.14 146.9 A 29.38 29.38 0 0 0 117.52 117.52" fill="#dc9694"/><rect x="117.52" y="117.52" width="29.38" height="29.38" fill="#e9bdbb"/><polygon points="117.52,117.52 146.9,117.52 146.9,146.9" fill="#4685cd"/><rect x="146.9" y="117.52" width="29.38" height="29.38" fill="#df9d9b"/><polygon points="146.9,117.52 176.28,117.52 146.9,146.9" fill="#f1d5d4"/><rect x="176.28" y="117.52" width="29.38" height="29.38" fill="#d0716f"/><path d="M 176.28 146.9 A 29.38 29.38 0 0 1  205.66 117.52 L 205.66 146.9" fill="#fcf5f5"/><rect x="205.66" y="117.52" width="29.38" height="29.38" fill="#d6e4f4"/><polygon points="205.66,117.52 235.04,146.9 205.66,146.9" fill="#206cc3"/><rect x="235.04" y="117.52" width="29.38" height="29.38" fill="#9bbde4"/><path d="M 235.04 117.52 A 29.38 29.38 0 0 1 264.42 146.9 L 235.04 146.9" fill="#98bbe3"/><rect x="264.42" y="117.52" width="29.38" height="29.38" fill="#4383cc"/><rect x="264.42" y="117.52" width="29.38" height="29.38" fill="#eecbca"/><rect x="293.8" y="117.52" width="29.38" height="29.38" fill="#f1d5d4"/><rect x="293.8" y="117.52" width="29.38" height="29.38" fill="#e8b9b8"/><rect x="323.18" y="117.52" width="29.38" height="29.38" fill="#fdf9f9"/><rect x="323.18" y="117.52" width="29.38" height="29.38" fill="#d57f7d"/><rect x="352.56" y="117.52" width="29.38" height="29.38" fill="#dd9795"/><path d="M 352.56 117.52 A 29.38 29.38 0 0 1  381.94 146.9 L 352.56 117.52 A 29.38 29.38 0 0 0 381.94 146.9" fill="#dae7f5"/><rect x="381.94" y="117.52" width="29.38" height="29.38" fill="#f4dddc"/><path d="M 381.94 117.52 A 29.38 29.38 0 0 0 411.32 146.9 L 411.32 117.52" fill="#fcf6f5"/><rect x="411.32" y="117.52" width="29.38" height="29.38" fill="#4a88ce"/><polygon points="411.32,117.52 440.7,117.52 411.32,146.9" fill="#1867c1"/><rect x="440.7" y="117.52" width="29.38" height="29.38" fill="#b3cdeb"/><polygon points="440.7,117.52 470.08,146.9 440.7,146.9" fill="#fbfcfe"/><rect x="470.08" y="117.52" width="29.38" height="29.38" fill="#4182cc"/><path d="M 470.08 146.9 A 29.38 29.38 0 0 1  499.46 117.52 L 499.46 146.9" fill="#eecccb"/><rect x="499.46" y="117.52" width="29.38" height="29.38" fill="#4c89cf"/><rect x="499.46" y="117.52" width="29.38" height="29.38" fill="#6b9ed7"/><rect x="528.84" y="117.52" width="29.38" height="29.38" fill="#eecac9"/><rect x="528.84" y="117.52" width="29.38" height="29.38" fill="#c5504d"/><rect x="558.22" y="117.52" width="29.38" height="29.38" fill="#faf0ef"/><path d="M 558.22 117.52 A 29.38 29.38 0 0 1 587.6 146.9 L 558.22 146.9" fill="#6d9fd8"/><rect x="587.6" y="117.52" width="29.38" height="29.38" fill="#4786ce"/><rect x="587.6" y="117.52" width="29.38" height="29.38" fill="#fcf6f6"/><rect x="616.98" y="117.52" width="29.38" height="29.38" fill="#bdd4ed"/><rect x="616.98" y="117.52" width="29.38" height="29.38" fill="#8eb5e1"/><rect x="646.36" y="117.52" width="29.38" height="29.38" fill="#fcfdfe"/><path d="M 646.36 146.9 A 29.38 29.38 0 0 0 675.74 117.52 L 646.36 117.52" fill="#f1d6d5"/><rect x="675.74" y="117.52" width="29.38" height="29.38" fill="#71a1d9"/><polygon points="675.74,117.52 705.12,117.52 705.12,146.9" fill="#de9b99"/><rect x="705.12" y="117.52" width="29.38" height="29.38" fill="#5e95d4"/><path d="M 705.12 146.9 A 29.38 29.38 0 0 0 734.5 117.52 L 705.12 117.52" fill="#538ed1"/><rect x="734.5" y="117.52" width="29.38" height="29.38" fill="#d27673"/><path d="M 734.5 146.9 A 29.38 29.38 0 0 1  763.88 117.52 L 763.88 146.9" fill="#dde9f6"/><rect x="763.88" y="117.52" width="29.38" height="29.38" fill="#5891d2"/><rect x="763.88" y="117.52" width="29.38" height="29.38" fill="#3b7eca"/><rect x="793.26" y="117.52" width="29.38" height="29.38" fill="#e1a4a3"/><polygon points="793.26,117.52 822.64,117.52 822.64,146.9" fill="#f3dad9"/><rect x="822.64" y="117.52" width="29.38" height="29.38" fill="#3479c8"/><rect x="822.64" y="117.52" width="29.38" height="29.38" fill="#edc7c6"/><rect x="852.02" y="117.52" width="29.38" height="29.38" fill="#e0a2a0"/><rect x="852.02" y="117.52" width="29.38" height="29.38" fill="#2b73c6"/><rect x="881.4" y="117.52" width="29.38" height="29.38" fill="#f6f9fd"/><path d="M 881.4 146.9 A 29.38 29.38 0 0 1  910.78 117.52 L 881.4 146.9 A 29.38 29.38 0 0 0 910.78 117.52" fill="#d8e5f4"/><rect x="910.78" y="117.52" width="29.38" height="29.38" fill="#387cc9"/><path d="M 910.78 117.52 A 29.38 29.38 0 0 1 940.16 146.9 L 910.78 146.9" fill="#cb625f"/><rect x="940.16" y="117.52" width="29.38" height="29.38" fill="#6a9dd7"/><rect x="940.16" y="117.52" width="29.38" height="29.38" fill="#e6b2b0"/><rect x="969.54" y="117.52" width="29.38" height="29.38" fill="#cb605d"/><rect x="969.54" y="117.52" width="29.38" height="29.38" fill="#e2ecf7"/><rect x="998.92" y="117.52" width="29.38" height="29.38" fill="#d8e5f4"/><path d="M 998.92 117.52 A 29.38 29.38 0 0 1 1028.3 146.9 L 998.92 146.9" fill="#bdd3ed"/><rect x="1028.3" y="117.52" width="29.38" height="29.38" fill="#d0e0f2"/><path d="M 1028.3 117.52 A 29.38 29.38 0 0 0 1057.68 146.9 L 1057.68 117.52" fill="#ce6c69"/><rect x="1057.68" y="117.52" width="29.38" height="29.38" fill="#9abde4"/><polygon points="1087.0600000000002,117.52 1087.0600000000002,146.9 1057.68,146.9" fill="#a9c6e8"/><rect x="1087.06" y="117.52" width="29.38" height="29.38" fill="#f7e5e5"/><path d="M 1087.06 117.52 A 29.38 29.38 0 0 1  1116.44 146.9 L 1087.06 117.52 A 29.38 29.38 0 0 0 1116.44 146.9" fill="#5d94d3"/><rect x="1116.44" y="117.52" width="29.38" height="29.38" fill="#1f6cc3"/><path d="M 1116.44 117.52 A 29.38 29.38 0 0 1  1145.8200000000002 146.9 L 1116.44 117.52 A 29.38 29.38 0 0 0 1145.8200000000002 146.9" fill="#1766c0"/><rect x="1145.82" y="117.52" width="29.38" height="29.38" fill="#c7daf0"/><path d="M 1145.82 117.52 A 29.38 29.38 0 0 0 1175.2 146.9 L 1175.2 117.52" fill="#cd6865"/><rect x="1175.2" y="117.52" width="29.38" height="29.38" fill="#cb605d"/><path d="M 1175.2 117.52 A 29.38 29.38 0 0 1  1204.5800000000002 146.9 L 1175.2 117.52 A 29.38 29.38 0 0 0 1204.5800000000002 146.9" fill="#cc6562"/><rect x="1204.58" y="117.52" width="29.38" height="29.38" fill="#d47e7b"/><polygon points="1204.58,117.52 1233.96,117.52 1233.96,146.9" fill="#f5e0e0"/><rect x="1233.96" y="117.52" width="29.38" height="29.38" fill="#f0f5fb"/><polygon points="1233.96,117.52 1263.3400000000001,146.9 1233.96,146.9" fill="#cc6461"/><rect x="1263.34" y="117.52" width="29.38" height="29.38" fill="#e0a19f"/><polygon points="1292.72,117.52 1292.72,146.9 1263.34,146.9" fill="#db918f"/><rect x="1292.72" y="117.52" width="29.38" height="29.38" fill="#82addd"/><path d="M 1292.72 146.9 A 29.38 29.38 0 0 0 1322.1000000000001 117.52 L 1292.72 117.52" fill="#cf6e6b"/><rect x="1322.1" y="117.52" width="29.38" height="29.38" fill="#2d75c6"/><path d="M 1322.1 117.52 A 29.38 29.38 0 0 0 1351.48 146.9 L 1351.48 117.52" fill="#347ac8"/><rect x="1351.48" y="117.52" width="29.38" height="29.38" fill="#3a7eca"/><path d="M 1351.48 117.52 A 29.38 29.38 0 0 1 1380.8600000000001 146.9 L 1351.48 146.9" fill="#3177c8"/><rect x="1380.86" y="117.52" width="29.38" height="29.38" fill="#f5f8fc"/><path d="M 1380.86 117.52 A 29.38 29.38 0 0 1  1410.24 146.9 L 1380.86 117.52 A 29.38 29.38 0 0 0 1410.24 146.9" fill="#73a3d9"/><rect x="1410.24" y="117.52" width="29.38" height="29.38" fill="#4383cc"/><path d="M 1410.24 146.9 A 29.38 29.38 0 0 1  1439.6200000000001 117.52 L 1410.24 146.9 A 29.38 29.38 0 0 0 1439.6200000000001 117.52" fill="#acc9e9"/><rect x="1439.62" y="117.52" width="29.38" height="29.38" fill="#fefdfd"/><polygon points="1439.62,117.52 1469,117.52 1439.62,146.9" fill="#e6eff8"/><rect x="0" y="146.9" width="29.38" height="29.38" fill="#fdfefe"/><rect x="0" y="146.9" width="29.38" height="29.38" fill="#fbf3f3"/><rect x="29.38" y="146.9" width="29.38" height="29.38" fill="#5790d2"/><path d="M 29.38 146.9 A 29.38 29.38 0 0 1  58.76 176.28 L 29.38 146.9 A 29.38 29.38 0 0 0 58.76 176.28" fill="#bdd3ed"/><rect x="58.76" y="146.9" width="29.38" height="29.38" fill="#4c89cf"/><polygon points="58.76,146.9 88.14,146.9 58.76,176.28" fill="#d8e5f4"/><rect x="88.14" y="146.9" width="29.38" height="29.38" fill="#d37977"/><polygon points="88.14,146.9 117.52,146.9 117.52,176.28" fill="#c75653"/><rect x="117.52" y="146.9" width="29.38" height="29.38" fill="#e8b8b7"/><rect x="117.52" y="146.9" width="29.38" height="29.38" fill="#fcf7f7"/><rect x="146.9" y="146.9" width="29.38" height="29.38" fill="#d57e7c"/><path d="M 146.9 146.9 A 29.38 29.38 0 0 1 176.28 176.28 L 146.9 176.28" fill="#2771c5"/><rect x="176.28" y="146.9" width="29.38" height="29.38" fill="#fdfefe"/><polygon points="176.28,146.9 205.66,146.9 176.28,176.28" fill="#c34946"/><rect x="205.66" y="146.9" width="29.38" height="29.38" fill="#538ed1"/><rect x="205.66" y="146.9" width="29.38" height="29.38" fill="#ba2f2b"/><rect x="235.04" y="146.9" width="29.38" height="29.38" fill="#8fb5e1"/><rect x="235.04" y="146.9" width="29.38" height="29.38" fill="#eecccb"/><rect x="264.42" y="146.9" width="29.38" height="29.38" fill="#dc9694"/><rect x="264.42" y="146.9" width="29.38" height="29.38" fill="#4584cd"/><rect x="293.8" y="146.9" width="29.38" height="29.38" fill="#b9d1ec"/><polygon points="293.8,146.9 323.18,146.9 323.18,176.28" fill="#d5e3f4"/><rect x="323.18" y="146.9" width="29.38" height="29.38" fill="#3f81cb"/><polygon points="323.18,146.9 352.56,146.9 323.18,176.28" fill="#4d8acf"/><rect x="352.56" y="146.9" width="29.38" height="29.38" fill="#acc9e9"/><rect x="352.56" y="146.9" width="29.38" height="29.38" fill="#f9eeee"/><rect x="381.94" y="146.9" width="29.38" height="29.38" fill="#2f76c7"/><polygon points="381.94,146.9 411.32,146.9 411.32,176.28" fill="#f7e7e7"/><rect x="411.32" y="146.9" width="29.38" height="29.38" fill="#e6b3b1"/><rect x="411.32" y="146.9" width="29.38" height="29.38" fill="#e0a2a0"/><rect x="440.7" y="146.9" width="29.38" height="29.38" fill="#f7e8e7"/><rect x="440.7" y="146.9" width="29.38" height="29.38" fill="#d78684"/><rect x="470.08" y="146.9" width="29.38" height="29.38" fill="#d17371"/><polygon points="470.08,146.9 499.46,176.28 470.08,176.28" fill="#fefcfc"/><rect x="499.46" y="146.9" width="29.38" height="29.38" fill="#d78582"/><polygon points="499.46,146.9 528.84,146.9 499.46,176.28" fill="#8fb5e1"/><rect x="528.84" y="146.9" width="29.38" height="29.38" fill="#faefee"/><polygon points="528.84,146.9 558.22,146.9 528.84,176.28" fill="#c6524e"/><rect x="558.22" y="146.9" width="29.38" height="29.38" fill="#a7c5e7"/><rect x="558.22" y="146.9" width="29.38" height="29.38" fill="#e9bdbc"/><rect x="587.6" y="146.9" width="29.38" height="29.38" fill="#3e80cb"/><polygon points="587.6,146.9 616.98,176.28 587.6,176.28" fill="#be3b37"/><rect x="616.98" y="146.9" width="29.38" height="29.38" fill="#c34a47"/><polygon points="616.98,146.9 646.36,146.9 646.36,176.28" fill="#558fd1"/><rect x="646.36" y="146.9" width="29.38" height="29.38" fill="#3e80cb"/><polygon points="675.74,146.9 675.74,176.28 646.36,176.28" fill="#ce6b68"/><rect x="675.74" y="146.9" width="29.38" height="29.38" fill="#367bc9"/><rect x="675.74" y="146.9" width="29.38" height="29.38" fill="#f7e7e6"/><rect x="705.12" y="146.9" width="29.38" height="29.38" fill="#538ed1"/><rect x="705.12" y="146.9" width="29.38" height="29.38" fill="#b2ccea"/><rect x="734.5" y="146.9" width="29.38" height="29.38" fill="#4584cd"/><polygon points="734.5,146.9 763.88,176.28 734.5,176.28" fill="#b7cfec"/><rect x="763.88" y="146.9" width="29.38" height="29.38" fill="#d98b89"/><path d="M 763.88 146.9 A 29.38 29.38 0 0 1  793.26 176.28 L 763.88 146.9 A 29.38 29.38 0 0 0 793.26 176.28" fill="#e4aeac"/><rect x="793.26" y="146.9" width="29.38" height="29.38" fill="#bc332f"/><rect x="793.26" y="146.9" width="29.38" height="29.38" fill="#e1a5a4"/><rect x="822.64" y="146.9" width="29.38" height="29.38" fill="#518cd0"/><polygon points="822.64,146.9 852.02,146.9 852.02,176.28" fill="#5d94d3"/><rect x="852.02" y="146.9" width="29.38" height="29.38" fill="#cc6562"/><path d="M 852.02 146.9 A 29.38 29.38 0 0 1 881.4 176.28 L 852.02 176.28" fill="#c34845"/><rect x="881.4" y="146.9" width="29.38" height="29.38" fill="#c14340"/><path d="M 881.4 176.28 A 29.38 29.38 0 0 0 910.78 146.9 L 881.4 146.9" fill="#f1d4d3"/><rect x="910.78" y="146.9" width="29.38" height="29.38" fill="#ccddf1"/><rect x="910.78" y="146.9" width="29.38" height="29.38" fill="#c5d9ef"/><rect x="940.16" y="146.9" width="29.38" height="29.38" fill="#dae7f5"/><path d="M 940.16 176.28 A 29.38 29.38 0 0 0 969.54 146.9 L 940.16 146.9" fill="#4886ce"/><rect x="969.54" y="146.9" width="29.38" height="29.38" fill="#cd6764"/><rect x="969.54" y="146.9" width="29.38" height="29.38" fill="#e4edf8"/><rect x="998.92" y="146.9" width="29.38" height="29.38" fill="#cf6d6b"/><rect x="998.92" y="146.9" width="29.38" height="29.38" fill="#eabfbe"/><rect x="1028.3" y="146.9" width="29.38" height="29.38" fill="#c4d8ef"/><path d="M 1028.3 176.28 A 29.38 29.38 0 0 1  1057.68 146.9 L 1057.68 176.28" fill="#c85956"/><rect x="1057.68" y="146.9" width="29.38" height="29.38" fill="#b3cdeb"/><rect x="1057.68" y="146.9" width="29.38" height="29.38" fill="#73a3d9"/><rect x="1087.06" y="146.9" width="29.38" height="29.38" fill="#ce6b68"/><path d="M 1087.06 146.9 A 29.38 29.38 0 0 1 1116.44 176.28 L 1087.06 176.28" fill="#f6f9fd"/><rect x="1116.44" y="146.9" width="29.38" height="29.38" fill="#dfeaf7"/><rect x="1116.44" y="146.9" width="29.38" height="29.38" fill="#d78582"/><rect x="1145.82" y="146.9" width="29.38" height="29.38" fill="#2e76c7"/><rect x="1145.82" y="146.9" width="29.38" height="29.38" fill="#f3dcdb"/><rect x="1175.2" y="146.9" width="29.38" height="29.38" fill="#ce6c69"/><path d="M 1175.2 146.9 A 29.38 29.38 0 0 1  1204.5800000000002 176.28 L 1175.2 146.9 A 29.38 29.38 0 0 0 1204.5800000000002 176.28" fill="#9bbde4"/><rect x="1204.58" y="146.9" width="29.38" height="29.38" fill="#ecc5c4"/><polygon points="1233.96,146.9 1233.96,176.28 1204.58,176.28" fill="#dce8f6"/><rect x="1233.96" y="146.9" width="29.38" height="29.38" fill="#e3aaa8"/><rect x="1233.96" y="146.9" width="29.38" height="29.38" fill="#cd6764"/><rect x="1263.34" y="146.9" width="29.38" height="29.38" fill="#c75552"/><path d="M 1263.34 146.9 A 29.38 29.38 0 0 1 1292.72 176.28 L 1263.34 176.28" fill="#a5c4e7"/><rect x="1292.72" y="146.9" width="29.38" height="29.38" fill="#e4acab"/><rect x="1292.72" y="146.9" width="29.38" height="29.38" fill="#edc8c7"/><rect x="1322.1" y="146.9" width="29.38" height="29.38" fill="#347ac8"/><polygon points="1322.1,146.9 1351.48,146.9 1322.1,176.28" fill="#3d7fcb"/><rect x="1351.48" y="146.9" width="29.38" height="29.38" fill="#f0f5fb"/><path d="M 1351.48 176.28 A 29.38 29.38 0 0 1  1380.8600000000001 146.9 L 1380.8600000000001 176.28" fill="#71a1d9"/><rect x="1380.86" y="146.9" width="29.38" height="29.38" fill="#afcae9"/><polygon points="1380.86,146.9 1410.24,146.9 1410.24,176.28" fill="#a4c3e7"/><rect x="1410.24" y="146.9" width="29.38" height="29.38" fill="#df9d9b"/><polygon points="1410.24,146.9 1439.6200000000001,176.28 1410.24,176.28" fill="#ca605d"/><rect x="1439.62" y="146.9" width="29.38" height="29.38" fill="#90b6e1"/><rect x="1439.62" y="146.9" width="29.38" height="29.38" fill="#82addd"/><rect x="0" y="176.28" width="29.38" height="29.38" fill="#da8f8d"/><polygon points="0,176.28 29.38,176.28 0,205.66" fill="#b92b27"/><rect x="29.38" y="176.28" width="29.38" height="29.38" fill="#8eb5e1"/><polygon points="29.38,176.28 58.76,176.28 29.38,205.66" fill="#4383cc"/><rect x="58.76" y="176.28" width="29.38" height="29.38" fill="#c5514e"/><polygon points="88.14,176.28 88.14,205.66 58.76,205.66" fill="#a2c2e6"/><rect x="88.14" y="176.28" width="29.38" height="29.38" fill="#fdfafa"/><path d="M 88.14 176.28 A 29.38 29.38 0 0 1 117.52 205.66 L 88.14 205.66" fill="#d7e4f4"/><rect x="117.52" y="176.28" width="29.38" height="29.38" fill="#79a7db"/><path d="M 117.52 205.66 A 29.38 29.38 0 0 0 146.9 176.28 L 117.52 176.28" fill="#92b7e2"/><rect x="146.9" y="176.28" width="29.38" height="29.38" fill="#c44d4a"/><rect x="146.9" y="176.28" width="29.38" height="29.38" fill="#adc9e9"/><rect x="176.28" y="176.28" width="29.38" height="29.38" fill="#f8ebea"/><path d="M 176.28 176.28 A 29.38 29.38 0 0 0 205.66 205.66 L 205.66 176.28" fill="#e2ecf7"/><rect x="205.66" y="176.28" width="29.38" height="29.38" fill="#99bce4"/><polygon points="205.66,176.28 235.04,176.28 235.04,205.66" fill="#6398d5"/><rect x="235.04" y="176.28" width="29.38" height="29.38" fill="#bd3632"/><path d="M 235.04 176.28 A 29.38 29.38 0 0 0 264.42 205.66 L 264.42 176.28" fill="#4e8acf"/><rect x="264.42" y="176.28" width="29.38" height="29.38" fill="#fcfdfe"/><path d="M 264.42 176.28 A 29.38 29.38 0 0 1 293.8 205.66 L 264.42 205.66" fill="#fcf5f5"/><rect x="293.8" y="176.28" width="29.38" height="29.38" fill="#faf0f0"/><polygon points="293.8,176.28 323.18,205.66 293.8,205.66" fill="#e5eef8"/><rect x="323.18" y="176.28" width="29.38" height="29.38" fill="#cd6663"/><polygon points="352.56,176.28 352.56,205.66 323.18,205.66" fill="#1968c1"/><rect x="352.56" y="176.28" width="29.38" height="29.38" fill="#aac7e8"/><rect x="352.56" y="176.28" width="29.38" height="29.38" fill="#da8f8d"/><rect x="381.94" y="176.28" width="29.38" height="29.38" fill="#3c7eca"/><path d="M 381.94 176.28 A 29.38 29.38 0 0 1  411.32 205.66 L 381.94 176.28 A 29.38 29.38 0 0 0 411.32 205.66" fill="#b9d1ec"/><rect x="411.32" y="176.28" width="29.38" height="29.38" fill="#e7eff9"/><polygon points="411.32,176.28 440.7,205.66 411.32,205.66" fill="#cd6866"/><rect x="440.7" y="176.28" width="29.38" height="29.38" fill="#f6e3e3"/><polygon points="440.7,176.28 470.08,205.66 440.7,205.66" fill="#a9c6e8"/><rect x="470.08" y="176.28" width="29.38" height="29.38" fill="#bdd3ed"/><polygon points="499.46,176.28 499.46,205.66 470.08,205.66" fill="#f9fbfe"/><rect x="499.46" y="176.28" width="29.38" height="29.38" fill="#e0a09e"/><rect x="499.46" y="176.28" width="29.38" height="29.38" fill="#91b6e1"/><rect x="528.84" y="176.28" width="29.38" height="29.38" fill="#f6e3e3"/><path d="M 528.84 176.28 A 29.38 29.38 0 0 1 558.22 205.66 L 528.84 205.66" fill="#226ec3"/><rect x="558.22" y="176.28" width="29.38" height="29.38" fill="#fffefe"/><rect x="558.22" y="176.28" width="29.38" height="29.38" fill="#ccddf1"/><rect x="587.6" y="176.28" width="29.38" height="29.38" fill="#f8eaea"/><rect x="587.6" y="176.28" width="29.38" height="29.38" fill="#9cbee4"/><rect x="616.98" y="176.28" width="29.38" height="29.38" fill="#e5b2b0"/><path d="M 616.98 176.28 A 29.38 29.38 0 0 1 646.36 205.66 L 616.98 205.66" fill="#dee9f6"/><rect x="646.36" y="176.28" width="29.38" height="29.38" fill="#d0706e"/><rect x="646.36" y="176.28" width="29.38" height="29.38" fill="#da8e8c"/><rect x="675.74" y="176.28" width="29.38" height="29.38" fill="#c0413d"/><polygon points="675.74,176.28 705.12,176.28 675.74,205.66" fill="#cb625f"/><rect x="705.12" y="176.28" width="29.38" height="29.38" fill="#e0ebf7"/><polygon points="705.12,176.28 734.5,176.28 734.5,205.66" fill="#b0cbea"/><rect x="734.5" y="176.28" width="29.38" height="29.38" fill="#ebc2c1"/><rect x="734.5" y="176.28" width="29.38" height="29.38" fill="#bc3430"/><rect x="763.88" y="176.28" width="29.38" height="29.38" fill="#edc7c6"/><path d="M 763.88 176.28 A 29.38 29.38 0 0 1  793.26 205.66 L 763.88 176.28 A 29.38 29.38 0 0 0 793.26 205.66" fill="#d37b78"/><rect x="793.26" y="176.28" width="29.38" height="29.38" fill="#df9d9b"/><polygon points="822.64,176.28 822.64,205.66 793.26,205.66" fill="#d27673"/><rect x="822.64" y="176.28" width="29.38" height="29.38" fill="#d17270"/><rect x="822.64" y="176.28" width="29.38" height="29.38" fill="#a2c2e6"/><rect x="852.02" y="176.28" width="29.38" height="29.38" fill="#c5514d"/><rect x="852.02" y="176.28" width="29.38" height="29.38" fill="#6c9ed7"/><rect x="881.4" y="176.28" width="29.38" height="29.38" fill="#b3cdeb"/><path d="M 881.4 205.66 A 29.38 29.38 0 0 0 910.78 176.28 L 881.4 176.28" fill="#dc9694"/><rect x="910.78" y="176.28" width="29.38" height="29.38" fill="#d6e4f4"/><path d="M 910.78 205.66 A 29.38 29.38 0 0 0 940.16 176.28 L 910.78 176.28" fill="#7ba8dc"/><rect x="940.16" y="176.28" width="29.38" height="29.38" fill="#c14340"/><path d="M 940.16 205.66 A 29.38 29.38 0 0 1  969.54 176.28 L 940.16 205.66 A 29.38 29.38 0 0 0 969.54 176.28" fill="#9ebfe5"/><rect x="969.54" y="176.28" width="29.38" height="29.38" fill="#518cd0"/><path d="M 969.54 176.28 A 29.38 29.38 0 0 1 998.92 205.66 L 969.54 205.66" fill="#f6e3e3"/><rect x="998.92" y="176.28" width="29.38" height="29.38" fill="#c85956"/><path d="M 998.92 205.66 A 29.38 29.38 0 0 1  1028.3 176.28 L 1028.3 205.66" fill="#4f8bd0"/><rect x="1028.3" y="176.28" width="29.38" height="29.38" fill="#b92b27"/><polygon points="1028.3,176.28 1057.68,205.66 1028.3,205.66" fill="#fbf2f1"/><rect x="1057.68" y="176.28" width="29.38" height="29.38" fill="#cb615e"/><path d="M 1057.68 205.66 A 29.38 29.38 0 0 0 1087.0600000000002 176.28 L 1057.68 176.28" fill="#bc3531"/><rect x="1087.06" y="176.28" width="29.38" height="29.38" fill="#6c9ed8"/><polygon points="1087.06,176.28 1116.44,176.28 1116.44,205.66" fill="#a9c6e8"/><rect x="1116.44" y="176.28" width="29.38" height="29.38" fill="#c34b47"/><rect x="1116.44" y="176.28" width="29.38" height="29.38" fill="#f9edec"/><rect x="1145.82" y="176.28" width="29.38" height="29.38" fill="#98bbe3"/><rect x="1145.82" y="176.28" width="29.38" height="29.38" fill="#afcae9"/><rect x="1175.2" y="176.28" width="29.38" height="29.38" fill="#508cd0"/><polygon points="1175.2,176.28 1204.5800000000002,176.28 1204.5800000000002,205.66" fill="#cd6865"/><rect x="1204.58" y="176.28" width="29.38" height="29.38" fill="#f9ecec"/><rect x="1204.58" y="176.28" width="29.38" height="29.38" fill="#f7e7e7"/><rect x="1233.96" y="176.28" width="29.38" height="29.38" fill="#cddef2"/><path d="M 1233.96 176.28 A 29.38 29.38 0 0 1  1263.3400000000001 205.66 L 1233.96 176.28 A 29.38 29.38 0 0 0 1263.3400000000001 205.66" fill="#eabfbd"/><rect x="1263.34" y="176.28" width="29.38" height="29.38" fill="#cf6f6c"/><rect x="1263.34" y="176.28" width="29.38" height="29.38" fill="#cc6461"/><rect x="1292.72" y="176.28" width="29.38" height="29.38" fill="#eef4fa"/><rect x="1292.72" y="176.28" width="29.38" height="29.38" fill="#b92c28"/><rect x="1322.1" y="176.28" width="29.38" height="29.38" fill="#c1d6ee"/><rect x="1322.1" y="176.28" width="29.38" height="29.38" fill="#acc9e9"/><rect x="1351.48" y="176.28" width="29.38" height="29.38" fill="#e6eff8"/><rect x="1351.48" y="176.28" width="29.38" height="29.38" fill="#c24542"/><rect x="1380.86" y="176.28" width="29.38" height="29.38" fill="#bc3430"/><path d="M 1380.86 205.66 A 29.38 29.38 0 0 1  1410.24 176.28 L 1410.24 205.66" fill="#83aede"/><rect x="1410.24" y="176.28" width="29.38" height="29.38" fill="#1c6ac2"/><polygon points="1410.24,176.28 1439.6200000000001,176.28 1410.24,205.66" fill="#b92b27"/><rect x="1439.62" y="176.28" width="29.38" height="29.38" fill="#d68481"/><polygon points="1439.62,176.28 1469,176.28 1439.62,205.66" fill="#e4acab"/><rect x="0" y="205.66" width="29.38" height="29.38" fill="#7ba8dc"/><path d="M 0 235.04 A 29.38 29.38 0 0 0 29.38 205.66 L 0 205.66" fill="#e5b0ae"/><rect x="29.38" y="205.66" width="29.38" height="29.38" fill="#ba2e2a"/><polygon points="58.76,205.66 58.76,235.04 29.38,235.04" fill="#d27775"/><rect x="58.76" y="205.66" width="29.38" height="29.38" fill="#a1c1e6"/><rect x="58.76" y="205.66" width="29.38" height="29.38" fill="#256fc4"/><rect x="88.14" y="205.66" width="29.38" height="29.38" fill="#ba2e2a"/><path d="M 88.14 235.04 A 29.38 29.38 0 0 1  117.52 205.66 L 117.52 235.04" fill="#2972c5"/><rect x="117.52" y="205.66" width="29.38" height="29.38" fill="#95b9e2"/><polygon points="117.52,205.66 146.9,235.04 117.52,235.04" fill="#d57f7c"/><rect x="146.9" y="205.66" width="29.38" height="29.38" fill="#c14440"/><polygon points="146.9,205.66 176.28,205.66 176.28,235.04" fill="#5790d2"/><rect x="176.28" y="205.66" width="29.38" height="29.38" fill="#97bae3"/><rect x="176.28" y="205.66" width="29.38" height="29.38" fill="#367bc9"/><rect x="205.66" y="205.66" width="29.38" height="29.38" fill="#bd3733"/><rect x="205.66" y="205.66" width="29.38" height="29.38" fill="#c24643"/><rect x="235.04" y="205.66" width="29.38" height="29.38" fill="#bcd3ed"/><path d="M 235.04 205.66 A 29.38 29.38 0 0 0 264.42 235.04 L 264.42 205.66" fill="#f0d1d0"/><rect x="264.42" y="205.66" width="29.38" height="29.38" fill="#f4dddc"/><path d="M 264.42 205.66 A 29.38 29.38 0 0 0 293.8 235.04 L 293.8 205.66" fill="#cbddf1"/><rect x="293.8" y="205.66" width="29.38" height="29.38" fill="#ebc4c3"/><polygon points="323.18,205.66 323.18,235.04 293.8,235.04" fill="#f2f6fb"/><rect x="323.18" y="205.66" width="29.38" height="29.38" fill="#c1423f"/><path d="M 323.18 235.04 A 29.38 29.38 0 0 1  352.56 205.66 L 352.56 235.04" fill="#d0e0f2"/><rect x="352.56" y="205.66" width="29.38" height="29.38" fill="#f7e7e6"/><rect x="352.56" y="205.66" width="29.38" height="29.38" fill="#f1d3d2"/><rect x="381.94" y="205.66" width="29.38" height="29.38" fill="#b0cbea"/><polygon points="411.32,205.66 411.32,235.04 381.94,235.04" fill="#fdf8f8"/><rect x="411.32" y="205.66" width="29.38" height="29.38" fill="#8ab2e0"/><path d="M 411.32 205.66 A 29.38 29.38 0 0 1  440.7 235.04 L 411.32 205.66 A 29.38 29.38 0 0 0 440.7 235.04" fill="#c2d7ef"/><rect x="440.7" y="205.66" width="29.38" height="29.38" fill="#d8e5f5"/><path d="M 440.7 205.66 A 29.38 29.38 0 0 1 470.08 235.04 L 440.7 235.04" fill="#df9f9d"/><rect x="470.08" y="205.66" width="29.38" height="29.38" fill="#f7e8e8"/><rect x="470.08" y="205.66" width="29.38" height="29.38" fill="#bed4ed"/><rect x="499.46" y="205.66" width="29.38" height="29.38" fill="#e1a4a3"/><rect x="499.46" y="205.66" width="29.38" height="29.38" fill="#ba2f2b"/><rect x="528.84" y="205.66" width="29.38" height="29.38" fill="#2a73c6"/><path d="M 528.84 205.66 A 29.38 29.38 0 0 1 558.22 235.04 L 528.84 235.04" fill="#e2ecf7"/><rect x="558.22" y="205.66" width="29.38" height="29.38" fill="#edc9c8"/><path d="M 558.22 205.66 A 29.38 29.38 0 0 0 587.6 235.04 L 587.6 205.66" fill="#2a73c6"/><rect x="587.6" y="205.66" width="29.38" height="29.38" fill="#6298d5"/><path d="M 587.6 205.66 A 29.38 29.38 0 0 1 616.98 235.04 L 587.6 235.04" fill="#e0a19f"/><rect x="616.98" y="205.66" width="29.38" height="29.38" fill="#9ebfe5"/><path d="M 616.98 235.04 A 29.38 29.38 0 0 1  646.36 205.66 L 616.98 235.04 A 29.38 29.38 0 0 0 646.36 205.66" fill="#d17371"/><rect x="646.36" y="205.66" width="29.38" height="29.38" fill="#1968c1"/><rect x="646.36" y="205.66" width="29.38" height="29.38" fill="#2e75c7"/><rect x="675.74" y="205.66" width="29.38" height="29.38" fill="#377cc9"/><rect x="675.74" y="205.66" width="29.38" height="29.38" fill="#d0e0f2"/><rect x="705.12" y="205.66" width="29.38" height="29.38" fill="#9abde4"/><rect x="705.12" y="205.66" width="29.38" height="29.38" fill="#88b1df"/><rect x="734.5" y="205.66" width="29.38" height="29.38" fill="#fdfeff"/><rect x="734.5" y="205.66" width="29.38" height="29.38" fill="#a2c2e6"/><rect x="763.88" y="205.66" width="29.38" height="29.38" fill="#d68280"/><rect x="763.88" y="205.66" width="29.38" height="29.38" fill="#db9391"/><rect x="793.26" y="205.66" width="29.38" height="29.38" fill="#f8fafd"/><path d="M 793.26 235.04 A 29.38 29.38 0 0 1  822.64 205.66 L 822.64 235.04" fill="#bdd4ed"/><rect x="822.64" y="205.66" width="29.38" height="29.38" fill="#f2d7d6"/><path d="M 822.64 235.04 A 29.38 29.38 0 0 1  852.02 205.66 L 822.64 235.04 A 29.38 29.38 0 0 0 852.02 205.66" fill="#c85956"/><rect x="852.02" y="205.66" width="29.38" height="29.38" fill="#cfdff2"/><path d="M 852.02 205.66 A 29.38 29.38 0 0 0 881.4 235.04 L 881.4 205.66" fill="#fbf4f4"/><rect x="881.4" y="205.66" width="29.38" height="29.38" fill="#97bbe3"/><path d="M 881.4 235.04 A 29.38 29.38 0 0 1  910.78 205.66 L 910.78 235.04" fill="#97bae3"/><rect x="910.78" y="205.66" width="29.38" height="29.38" fill="#91b7e1"/><path d="M 910.78 205.66 A 29.38 29.38 0 0 1  940.16 235.04 L 910.78 205.66 A 29.38 29.38 0 0 0 940.16 235.04" fill="#6398d5"/><rect x="940.16" y="205.66" width="29.38" height="29.38" fill="#de9a98"/><polygon points="940.16,205.66 969.54,235.04 940.16,235.04" fill="#f1d6d5"/><rect x="969.54" y="205.66" width="29.38" height="29.38" fill="#ba2f2b"/><path d="M 969.54 235.04 A 29.38 29.38 0 0 0 998.92 205.66 L 969.54 205.66" fill="#79a6db"/><rect x="998.92" y="205.66" width="29.38" height="29.38" fill="#bed4ed"/><polygon points="1028.3,205.66 1028.3,235.04 998.92,235.04" fill="#db9391"/><rect x="1028.3" y="205.66" width="29.38" height="29.38" fill="#d27673"/><rect x="1028.3" y="205.66" width="29.38" height="29.38" fill="#f1d3d3"/><rect x="1057.68" y="205.66" width="29.38" height="29.38" fill="#8ab2df"/><polygon points="1087.0600000000002,205.66 1087.0600000000002,235.04 1057.68,235.04" fill="#f2d7d6"/><rect x="1087.06" y="205.66" width="29.38" height="29.38" fill="#fbfcfe"/><polygon points="1087.06,205.66 1116.44,235.04 1087.06,235.04" fill="#6c9fd8"/><rect x="1116.44" y="205.66" width="29.38" height="29.38" fill="#dde9f6"/><polygon points="1116.44,205.66 1145.8200000000002,235.04 1116.44,235.04" fill="#1766c1"/><rect x="1145.82" y="205.66" width="29.38" height="29.38" fill="#eac0bf"/><polygon points="1145.82,205.66 1175.2,235.04 1145.82,235.04" fill="#7aa8db"/><rect x="1175.2" y="205.66" width="29.38" height="29.38" fill="#f0f5fb"/><polygon points="1204.5800000000002,205.66 1204.5800000000002,235.04 1175.2,235.04" fill="#76a5da"/><rect x="1204.58" y="205.66" width="29.38" height="29.38" fill="#f8fbfd"/><rect x="1204.58" y="205.66" width="29.38" height="29.38" fill="#e3edf7"/><rect x="1233.96" y="205.66" width="29.38" height="29.38" fill="#c0413d"/><path d="M 1233.96 235.04 A 29.38 29.38 0 0 1  1263.3400000000001 205.66 L 1263.3400000000001 235.04" fill="#b6cfeb"/><rect x="1263.34" y="205.66" width="29.38" height="29.38" fill="#d3e2f3"/><path d="M 1263.34 205.66 A 29.38 29.38 0 0 1 1292.72 235.04 L 1263.34 235.04" fill="#dce8f6"/><rect x="1292.72" y="205.66" width="29.38" height="29.38" fill="#e2ecf7"/><rect x="1292.72" y="205.66" width="29.38" height="29.38" fill="#a4c3e7"/><rect x="1322.1" y="205.66" width="29.38" height="29.38" fill="#89b1df"/><polygon points="1322.1,205.66 1351.48,205.66 1351.48,235.04" fill="#1e6bc3"/><rect x="1351.48" y="205.66" width="29.38" height="29.38" fill="#e6eff8"/><rect x="1351.48" y="205.66" width="29.38" height="29.38" fill="#9ebfe5"/><rect x="1380.86" y="205.66" width="29.38" height="29.38" fill="#f4dedd"/><rect x="1380.86" y="205.66" width="29.38" height="29.38" fill="#b8d0ec"/><rect x="1410.24" y="205.66" width="29.38" height="29.38" fill="#e8b9b7"/><polygon points="1439.6200000000001,205.66 1439.6200000000001,235.04 1410.24,235.04" fill="#e0a2a0"/><rect x="1439.62" y="205.66" width="29.38" height="29.38" fill="#db9290"/><polygon points="1439.62,205.66 1469,205.66 1439.62,235.04" fill="#d98d8b"/><rect x="0" y="235.04" width="29.38" height="29.38" fill="#e6b4b3"/><rect x="0" y="235.04" width="29.38" height="29.38" fill="#dce8f6"/><rect x="29.38" y="235.04" width="29.38" height="29.38" fill="#4585cd"/><rect x="29.38" y="235.04" width="29.38" height="29.38" fill="#1b69c2"/><rect x="58.76" y="235.04" width="29.38" height="29.38" fill="#4685cd"/><rect x="58.76" y="235.04" width="29.38" height="29.38" fill="#6c9ed7"/><rect x="88.14" y="235.04" width="29.38" height="29.38" fill="#ca5f5c"/><rect x="88.14" y="235.04" width="29.38" height="29.38" fill="#71a2d9"/><rect x="117.52" y="235.04" width="29.38" height="29.38" fill="#aac7e8"/><path d="M 117.52 235.04 A 29.38 29.38 0 0 1  146.9 264.42 L 117.52 235.04 A 29.38 29.38 0 0 0 146.9 264.42" fill="#1767c1"/><rect x="146.9" y="235.04" width="29.38" height="29.38" fill="#91b6e1"/><path d="M 146.9 235.04 A 29.38 29.38 0 0 1  176.28 264.42 L 146.9 235.04 A 29.38 29.38 0 0 0 176.28 264.42" fill="#e6b3b1"/><rect x="176.28" y="235.04" width="29.38" height="29.38" fill="#c95a57"/><polygon points="205.66,235.04 205.66,264.42 176.28,264.42" fill="#b4ceeb"/><rect x="205.66" y="235.04" width="29.38" height="29.38" fill="#d57f7c"/><polygon points="205.66,235.04 235.04,235.04 235.04,264.42" fill="#e8f0f9"/><rect x="235.04" y="235.04" width="29.38" height="29.38" fill="#e9bbba"/><rect x="235.04" y="235.04" width="29.38" height="29.38" fill="#e9f0f9"/><rect x="264.42" y="235.04" width="29.38" height="29.38" fill="#bd3733"/><path d="M 264.42 235.04 A 29.38 29.38 0 0 1 293.8 264.42 L 264.42 264.42" fill="#4182cc"/><rect x="293.8" y="235.04" width="29.38" height="29.38" fill="#6c9ed7"/><polygon points="293.8,235.04 323.18,235.04 323.18,264.42" fill="#c95a57"/><rect x="323.18" y="235.04" width="29.38" height="29.38" fill="#1867c1"/><path d="M 323.18 235.04 A 29.38 29.38 0 0 0 352.56 264.42 L 352.56 235.04" fill="#b5cfeb"/><rect x="352.56" y="235.04" width="29.38" height="29.38" fill="#fdf9f8"/><polygon points="352.56,235.04 381.94,235.04 352.56,264.42" fill="#6e9fd8"/><rect x="381.94" y="235.04" width="29.38" height="29.38" fill="#1e6bc2"/><polygon points="381.94,235.04 411.32,235.04 381.94,264.42" fill="#85aede"/><rect x="411.32" y="235.04" width="29.38" height="29.38" fill="#c75653"/><polygon points="411.32,235.04 440.7,264.42 411.32,264.42" fill="#4f8bd0"/><rect x="440.7" y="235.04" width="29.38" height="29.38" fill="#abc8e8"/><polygon points="440.7,235.04 470.08,235.04 440.7,264.42" fill="#1c6ac2"/><rect x="470.08" y="235.04" width="29.38" height="29.38" fill="#e8bab9"/><polygon points="470.08,235.04 499.46,264.42 470.08,264.42" fill="#bd3632"/><rect x="499.46" y="235.04" width="29.38" height="29.38" fill="#cf6c6a"/><path d="M 499.46 264.42 A 29.38 29.38 0 0 1  528.84 235.04 L 499.46 264.42 A 29.38 29.38 0 0 0 528.84 235.04" fill="#cfdff2"/><rect x="528.84" y="235.04" width="29.38" height="29.38" fill="#c85754"/><polygon points="558.22,235.04 558.22,264.42 528.84,264.42" fill="#aac7e8"/><rect x="558.22" y="235.04" width="29.38" height="29.38" fill="#689bd6"/><rect x="558.22" y="235.04" width="29.38" height="29.38" fill="#3d7fcb"/><rect x="587.6" y="235.04" width="29.38" height="29.38" fill="#e5b1af"/><rect x="587.6" y="235.04" width="29.38" height="29.38" fill="#d17472"/><rect x="616.98" y="235.04" width="29.38" height="29.38" fill="#c1423e"/><polygon points="616.98,235.04 646.36,235.04 646.36,264.42" fill="#73a3d9"/><rect x="646.36" y="235.04" width="29.38" height="29.38" fill="#e5afae"/><path d="M 646.36 235.04 A 29.38 29.38 0 0 1 675.74 264.42 L 646.36 264.42" fill="#7daadc"/><rect x="675.74" y="235.04" width="29.38" height="29.38" fill="#6297d5"/><rect x="675.74" y="235.04" width="29.38" height="29.38" fill="#6499d5"/><rect x="705.12" y="235.04" width="29.38" height="29.38" fill="#bc3531"/><path d="M 705.12 264.42 A 29.38 29.38 0 0 1  734.5 235.04 L 734.5 264.42" fill="#dce8f6"/><rect x="734.5" y="235.04" width="29.38" height="29.38" fill="#5790d2"/><rect x="734.5" y="235.04" width="29.38" height="29.38" fill="#d68381"/><rect x="763.88" y="235.04" width="29.38" height="29.38" fill="#367bc9"/><polygon points="763.88,235.04 793.26,264.42 763.88,264.42" fill="#edc8c7"/><rect x="793.26" y="235.04" width="29.38" height="29.38" fill="#90b6e1"/><rect x="793.26" y="235.04" width="29.38" height="29.38" fill="#c8dbf0"/><rect x="822.64" y="235.04" width="29.38" height="29.38" fill="#e9bdbc"/><path d="M 822.64 235.04 A 29.38 29.38 0 0 1  852.02 264.42 L 822.64 235.04 A 29.38 29.38 0 0 0 852.02 264.42" fill="#dce8f6"/><rect x="852.02" y="235.04" width="29.38" height="29.38" fill="#8bb2e0"/><path d="M 852.02 235.04 A 29.38 29.38 0 0 1  881.4 264.42 L 852.02 235.04 A 29.38 29.38 0 0 0 881.4 264.42" fill="#e3a9a7"/><rect x="881.4" y="235.04" width="29.38" height="29.38" fill="#4585cd"/><polygon points="910.78,235.04 910.78,264.42 881.4,264.42" fill="#e4adac"/><rect x="910.78" y="235.04" width="29.38" height="29.38" fill="#c95a57"/><rect x="910.78" y="235.04" width="29.38" height="29.38" fill="#cc6562"/><rect x="940.16" y="235.04" width="29.38" height="29.38" fill="#cfe0f2"/><polygon points="940.16,235.04 969.54,264.42 940.16,264.42" fill="#3b7eca"/><rect x="969.54" y="235.04" width="29.38" height="29.38" fill="#cadcf1"/><rect x="969.54" y="235.04" width="29.38" height="29.38" fill="#e0a2a0"/><rect x="998.92" y="235.04" width="29.38" height="29.38" fill="#e2a7a5"/><polygon points="998.92,235.04 1028.3,235.04 998.92,264.42" fill="#538ed1"/><rect x="1028.3" y="235.04" width="29.38" height="29.38" fill="#538ed1"/><path d="M 1028.3 264.42 A 29.38 29.38 0 0 1  1057.68 235.04 L 1028.3 264.42 A 29.38 29.38 0 0 0 1057.68 235.04" fill="#e5b0ae"/><rect x="1057.68" y="235.04" width="29.38" height="29.38" fill="#3e80cb"/><rect x="1057.68" y="235.04" width="29.38" height="29.38" fill="#9abde4"/><rect x="1087.06" y="235.04" width="29.38" height="29.38" fill="#e9f0f9"/><polygon points="1087.06,235.04 1116.44,235.04 1116.44,264.42" fill="#5992d2"/><rect x="1116.44" y="235.04" width="29.38" height="29.38" fill="#f5f9fc"/><polygon points="1145.8200000000002,235.04 1145.8200000000002,264.42 1116.44,264.42" fill="#e1a6a4"/><rect x="1145.82" y="235.04" width="29.38" height="29.38" fill="#e0a19f"/><polygon points="1145.82,235.04 1175.2,264.42 1145.82,264.42" fill="#d47c79"/><rect x="1175.2" y="235.04" width="29.38" height="29.38" fill="#fbf3f3"/><polygon points="1175.2,235.04 1204.5800000000002,235.04 1204.5800000000002,264.42" fill="#70a1d8"/><rect x="1204.58" y="235.04" width="29.38" height="29.38" fill="#4786cd"/><path d="M 1204.58 235.04 A 29.38 29.38 0 0 0 1233.96 264.42 L 1233.96 235.04" fill="#db928f"/><rect x="1233.96" y="235.04" width="29.38" height="29.38" fill="#fdfafa"/><path d="M 1233.96 235.04 A 29.38 29.38 0 0 1  1263.3400000000001 264.42 L 1233.96 235.04 A 29.38 29.38 0 0 0 1263.3400000000001 264.42" fill="#1766c1"/><rect x="1263.34" y="235.04" width="29.38" height="29.38" fill="#efcdcc"/><polygon points="1263.34,235.04 1292.72,235.04 1263.34,264.42" fill="#4886ce"/><rect x="1292.72" y="235.04" width="29.38" height="29.38" fill="#dc9694"/><rect x="1292.72" y="235.04" width="29.38" height="29.38" fill="#e4aead"/><rect x="1322.1" y="235.04" width="29.38" height="29.38" fill="#ebf2fa"/><rect x="1322.1" y="235.04" width="29.38" height="29.38" fill="#c34a47"/><rect x="1351.48" y="235.04" width="29.38" height="29.38" fill="#80acdd"/><polygon points="1351.48,235.04 1380.8600000000001,235.04 1351.48,264.42" fill="#ecf3fa"/><rect x="1380.86" y="235.04" width="29.38" height="29.38" fill="#f7e6e6"/><polygon points="1410.24,235.04 1410.24,264.42 1380.86,264.42" fill="#dae7f5"/><rect x="1410.24" y="235.04" width="29.38" height="29.38" fill="#e6b3b2"/><polygon points="1439.6200000000001,235.04 1439.6200000000001,264.42 1410.24,264.42" fill="#c95b58"/><rect x="1439.62" y="235.04" width="29.38" height="29.38" fill="#eabfbe"/><rect x="1439.62" y="235.04" width="29.38" height="29.38" fill="#ca5f5c"/><rect x="0" y="264.42" width="29.38" height="29.38" fill="#c75451"/><polygon points="0,264.42 29.38,293.8 0,293.8" fill="#ecf3fa"/><rect x="29.38" y="264.42" width="29.38" height="29.38" fill="#e8bab8"/><rect x="29.38" y="264.42" width="29.38" height="29.38" fill="#fcf5f4"/><rect x="58.76" y="264.42" width="29.38" height="29.38" fill="#c34a46"/><polygon points="58.76,264.42 88.14,264.42 88.14,293.8" fill="#a8c6e8"/><rect x="88.14" y="264.42" width="29.38" height="29.38" fill="#d47e7b"/><polygon points="88.14,264.42 117.52,293.8 88.14,293.8" fill="#dde9f6"/><rect x="117.52" y="264.42" width="29.38" height="29.38" fill="#bdd4ed"/><rect x="117.52" y="264.42" width="29.38" height="29.38" fill="#e7b7b6"/><rect x="146.9" y="264.42" width="29.38" height="29.38" fill="#bd3633"/><polygon points="146.9,264.42 176.28,264.42 176.28,293.8" fill="#d6827f"/><rect x="176.28" y="264.42" width="29.38" height="29.38" fill="#e7b7b6"/><polygon points="176.28,264.42 205.66,293.8 176.28,293.8" fill="#d68381"/><rect x="205.66" y="264.42" width="29.38" height="29.38" fill="#fafcfe"/><polygon points="205.66,264.42 235.04,293.8 205.66,293.8" fill="#f0d1d0"/><rect x="235.04" y="264.42" width="29.38" height="29.38" fill="#c44c49"/><path d="M 235.04 293.8 A 29.38 29.38 0 0 0 264.42 264.42 L 235.04 264.42" fill="#fefbfb"/><rect x="264.42" y="264.42" width="29.38" height="29.38" fill="#3f81cb"/><rect x="264.42" y="264.42" width="29.38" height="29.38" fill="#4987ce"/><rect x="293.8" y="264.42" width="29.38" height="29.38" fill="#f2f6fb"/><polygon points="323.18,264.42 323.18,293.8 293.8,293.8" fill="#b9d1ec"/><rect x="323.18" y="264.42" width="29.38" height="29.38" fill="#e4adac"/><path d="M 323.18 264.42 A 29.38 29.38 0 0 1  352.56 293.8 L 323.18 264.42 A 29.38 29.38 0 0 0 352.56 293.8" fill="#f3dada"/><rect x="352.56" y="264.42" width="29.38" height="29.38" fill="#e5b2b0"/><polygon points="352.56,264.42 381.94,264.42 381.94,293.8" fill="#d47c7a"/><rect x="381.94" y="264.42" width="29.38" height="29.38" fill="#c9dbf0"/><path d="M 381.94 293.8 A 29.38 29.38 0 0 0 411.32 264.42 L 381.94 264.42" fill="#f8ebeb"/><rect x="411.32" y="264.42" width="29.38" height="29.38" fill="#a4c3e7"/><polygon points="411.32,264.42 440.7,264.42 440.7,293.8" fill="#c14440"/><rect x="440.7" y="264.42" width="29.38" height="29.38" fill="#c5d9ef"/><path d="M 440.7 293.8 A 29.38 29.38 0 0 0 470.08 264.42 L 440.7 264.42" fill="#f3dbda"/><rect x="470.08" y="264.42" width="29.38" height="29.38" fill="#6ea0d8"/><rect x="470.08" y="264.42" width="29.38" height="29.38" fill="#ce6b68"/><rect x="499.46" y="264.42" width="29.38" height="29.38" fill="#d27674"/><polygon points="499.46,264.42 528.84,264.42 528.84,293.8" fill="#e0a09e"/><rect x="528.84" y="264.42" width="29.38" height="29.38" fill="#df9f9d"/><rect x="528.84" y="264.42" width="29.38" height="29.38" fill="#9dbee5"/><rect x="558.22" y="264.42" width="29.38" height="29.38" fill="#4a88ce"/><rect x="558.22" y="264.42" width="29.38" height="29.38" fill="#dd9896"/><rect x="587.6" y="264.42" width="29.38" height="29.38" fill="#f7e6e5"/><polygon points="616.98,264.42 616.98,293.8 587.6,293.8" fill="#ce6c69"/><rect x="616.98" y="264.42" width="29.38" height="29.38" fill="#e4edf8"/><rect x="616.98" y="264.42" width="29.38" height="29.38" fill="#faf0f0"/><rect x="646.36" y="264.42" width="29.38" height="29.38" fill="#b9d1ec"/><path d="M 646.36 264.42 A 29.38 29.38 0 0 1  675.74 293.8 L 646.36 264.42 A 29.38 29.38 0 0 0 675.74 293.8" fill="#d88986"/><rect x="675.74" y="264.42" width="29.38" height="29.38" fill="#d9e6f5"/><path d="M 675.74 264.42 A 29.38 29.38 0 0 1  705.12 293.8 L 675.74 264.42 A 29.38 29.38 0 0 0 705.12 293.8" fill="#eff4fb"/><rect x="705.12" y="264.42" width="29.38" height="29.38" fill="#d88886"/><polygon points="705.12,264.42 734.5,293.8 705.12,293.8" fill="#fffdfd"/><rect x="734.5" y="264.42" width="29.38" height="29.38" fill="#7ca9dc"/><rect x="734.5" y="264.42" width="29.38" height="29.38" fill="#dee9f6"/><rect x="763.88" y="264.42" width="29.38" height="29.38" fill="#d0e0f2"/><polygon points="763.88,264.42 793.26,264.42 793.26,293.8" fill="#8cb3e0"/><rect x="793.26" y="264.42" width="29.38" height="29.38" fill="#e0ebf7"/><polygon points="793.26,264.42 822.64,264.42 793.26,293.8" fill="#2972c5"/><rect x="822.64" y="264.42" width="29.38" height="29.38" fill="#548ed1"/><rect x="822.64" y="264.42" width="29.38" height="29.38" fill="#d27573"/><rect x="852.02" y="264.42" width="29.38" height="29.38" fill="#fdfefe"/><rect x="852.02" y="264.42" width="29.38" height="29.38" fill="#84aede"/><rect x="881.4" y="264.42" width="29.38" height="29.38" fill="#ebc2c1"/><polygon points="881.4,264.42 910.78,293.8 881.4,293.8" fill="#f6e4e4"/><rect x="910.78" y="264.42" width="29.38" height="29.38" fill="#afcaea"/><path d="M 910.78 264.42 A 29.38 29.38 0 0 1 940.16 293.8 L 910.78 293.8" fill="#eabebd"/><rect x="940.16" y="264.42" width="29.38" height="29.38" fill="#f8e9e9"/><rect x="940.16" y="264.42" width="29.38" height="29.38" fill="#e1a4a2"/><rect x="969.54" y="264.42" width="29.38" height="29.38" fill="#d9e6f5"/><polygon points="969.54,264.42 998.92,264.42 969.54,293.8" fill="#4786ce"/><rect x="998.92" y="264.42" width="29.38" height="29.38" fill="#a1c1e6"/><path d="M 998.92 264.42 A 29.38 29.38 0 0 0 1028.3 293.8 L 1028.3 264.42" fill="#256fc4"/><rect x="1028.3" y="264.42" width="29.38" height="29.38" fill="#aac7e8"/><polygon points="1057.68,264.42 1057.68,293.8 1028.3,293.8" fill="#e9bdbb"/><rect x="1057.68" y="264.42" width="29.38" height="29.38" fill="#eef4fa"/><rect x="1057.68" y="264.42" width="29.38" height="29.38" fill="#2c74c6"/><rect x="1087.06" y="264.42" width="29.38" height="29.38" fill="#b6cfeb"/><polygon points="1087.06,264.42 1116.44,264.42 1116.44,293.8" fill="#1f6bc3"/><rect x="1116.44" y="264.42" width="29.38" height="29.38" fill="#1867c1"/><polygon points="1145.8200000000002,264.42 1145.8200000000002,293.8 1116.44,293.8" fill="#ce6966"/><rect x="1145.82" y="264.42" width="29.38" height="29.38" fill="#c4d8ef"/><path d="M 1145.82 293.8 A 29.38 29.38 0 0 1  1175.2 264.42 L 1145.82 293.8 A 29.38 29.38 0 0 0 1175.2 264.42" fill="#347ac8"/><rect x="1175.2" y="264.42" width="29.38" height="29.38" fill="#ebc2c1"/><rect x="1175.2" y="264.42" width="29.38" height="29.38" fill="#c75653"/><rect x="1204.58" y="264.42" width="29.38" height="29.38" fill="#f4dcdc"/><path d="M 1204.58 264.42 A 29.38 29.38 0 0 1  1233.96 293.8 L 1204.58 264.42 A 29.38 29.38 0 0 0 1233.96 293.8" fill="#659ad5"/><rect x="1233.96" y="264.42" width="29.38" height="29.38" fill="#1c69c2"/><rect x="1233.96" y="264.42" width="29.38" height="29.38" fill="#f5e1e1"/><rect x="1263.34" y="264.42" width="29.38" height="29.38" fill="#df9f9d"/><rect x="1263.34" y="264.42" width="29.38" height="29.38" fill="#558fd1"/><rect x="1292.72" y="264.42" width="29.38" height="29.38" fill="#d0726f"/><path d="M 1292.72 264.42 A 29.38 29.38 0 0 1 1322.1000000000001 293.8 L 1292.72 293.8" fill="#c95a57"/><rect x="1322.1" y="264.42" width="29.38" height="29.38" fill="#be3a37"/><path d="M 1322.1 264.42 A 29.38 29.38 0 0 1  1351.48 293.8 L 1322.1 264.42 A 29.38 29.38 0 0 0 1351.48 293.8" fill="#f6f9fd"/><rect x="1351.48" y="264.42" width="29.38" height="29.38" fill="#ebc4c3"/><path d="M 1351.48 264.42 A 29.38 29.38 0 0 1  1380.8600000000001 293.8 L 1351.48 264.42 A 29.38 29.38 0 0 0 1380.8600000000001 293.8" fill="#71a2d9"/><rect x="1380.86" y="264.42" width="29.38" height="29.38" fill="#c1d6ee"/><path d="M 1380.86 293.8 A 29.38 29.38 0 0 0 1410.24 264.42 L 1380.86 264.42" fill="#d8e5f5"/><rect x="1410.24" y="264.42" width="29.38" height="29.38" fill="#df9e9c"/><rect x="1410.24" y="264.42" width="29.38" height="29.38" fill="#d9e6f5"/><rect x="1439.62" y="264.42" width="29.38" height="29.38" fill="#73a3d9"/><polygon points="1469,264.42 1469,293.8 1439.62,293.8" fill="#f8fafd"/></g></svg>