<svg xmlns="http://www.w3.org/2000/svg" version="1.1" xmlns:xlink="http://www.w3.org/1999/xlink" xmlns:svgjs="http://svgjs.dev/svgjs" viewBox="0 0 1422 800" opacity="0.8"><g stroke-width="3" stroke="hsl(190, 100%, 70%)" fill="none" stroke-linecap="round"><line x1="164" y1="0" x2="0" y2="164" opacity="0.29"></line><line x1="328" y1="0" x2="164" y2="164" opacity="0.90"></line><line x1="492" y1="0" x2="328" y2="164" opacity="0.16"></line><line x1="656" y1="0" x2="492" y2="164" opacity="0.94"></line><line x1="820" y1="0" x2="656" y2="164" opacity="0.86"></line><line x1="820" y1="0" x2="984" y2="164" opacity="0.67"></line><line x1="1148" y1="0" x2="984" y2="164" opacity="0.35"></line><line x1="1312" y1="0" x2="1148" y2="164" opacity="0.56"></line><line x1="1312" y1="0" x2="1476" y2="164" opacity="0.23"></line><line x1="0" y1="164" x2="164" y2="328" opacity="0.82"></line><line x1="164" y1="164" x2="328" y2="328" opacity="0.52"></line><line x1="492" y1="164" x2="328" y2="328" opacity="0.15"></line><line x1="656" y1="164" x2="492" y2="328" opacity="0.49"></line><line x1="656" y1="164" x2="820" y2="328" opacity="0.65"></line><line x1="984" y1="164" x2="820" y2="328" opacity="0.33"></line><line x1="1148" y1="164" x2="984" y2="328" opacity="0.32"></line><line x1="1148" y1="164" x2="1312" y2="328" opacity="0.72"></line><line x1="1312" y1="164" x2="1476" y2="328" opacity="0.26"></line><line x1="0" y1="328" x2="164" y2="492" opacity="0.82"></line><line x1="328" y1="328" x2="164" y2="492" opacity="0.64"></line><line x1="328" y1="328" x2="492" y2="492" opacity="0.76"></line><line x1="656" y1="328" x2="492" y2="492" opacity="0.60"></line><line x1="656" y1="328" x2="820" y2="492" opacity="0.24"></line><line x1="820" y1="328" x2="984" y2="492" opacity="0.26"></line><line x1="1148" y1="328" x2="984" y2="492" opacity="0.73"></line><line x1="1312" y1="328" x2="1148" y2="492" opacity="0.74"></line><line x1="1476" y1="328" x2="1312" y2="492" opacity="0.66"></line><line x1="0" y1="492" x2="164" y2="656" opacity="0.15"></line><line x1="328" y1="492" x2="164" y2="656" opacity="0.45"></line><line x1="492" y1="492" x2="328" y2="656" opacity="0.42"></line><line x1="656" y1="492" x2="492" y2="656" opacity="0.29"></line><line x1="820" y1="492" x2="656" y2="656" opacity="0.46"></line><line x1="984" y1="492" x2="820" y2="656" opacity="0.50"></line><line x1="1148" y1="492" x2="984" y2="656" opacity="0.11"></line><line x1="1312" y1="492" x2="1148" y2="656" opacity="0.94"></line><line x1="1476" y1="492" x2="1312" y2="656" opacity="0.60"></line><line x1="164" y1="656" x2="0" y2="820" opacity="0.45"></line><line x1="164" y1="656" x2="328" y2="820" opacity="0.29"></line><line x1="492" y1="656" x2="328" y2="820" opacity="0.71"></line><line x1="492" y1="656" x2="656" y2="820" opacity="0.75"></line><line x1="820" y1="656" x2="656" y2="820" opacity="0.46"></line><line x1="820" y1="656" x2="984" y2="820" opacity="0.25"></line><line x1="1148" y1="656" x2="984" y2="820" opacity="0.81"></line><line x1="1148" y1="656" x2="1312" y2="820" opacity="0.24"></line><line x1="1476" y1="656" x2="1312" y2="820" opacity="0.95"></line></g></svg>